<?xml version="1.0" encoding="utf-8"?>
<!-- Generator: Adobe Illustrator 16.0.0, SVG Export Plug-In . SVG Version: 6.00 Build 0)  -->
<!DOCTYPE svg PUBLIC "-//W3C//DTD SVG 1.1//EN" "http://www.w3.org/Graphics/SVG/1.1/DTD/svg11.dtd">
<svg version="1.1" xmlns="http://www.w3.org/2000/svg" xmlns:xlink="http://www.w3.org/1999/xlink" x="0px" y="0px" width="800px"
	 height="600px" viewBox="0 0 800 600" enable-background="new 0 0 800 600" xml:space="preserve">
<g id="Calque_9">
	<rect fill="#3C2415" width="800" height="600"/>
</g>
<g id="liens">
	<g>
		<g>
			<path fill="#1C75BC" d="M174.841,202.738c-5.854,11.799-6.349,23.897-2.614,36.426c3.867,12.975,11.262,24.632,16.45,37.074
				c3.405,8.167,6.876,17.742,5.33,26.727c-1.41,8.192-8.331,12.755-15.645,15.383c-19.527,7.014-41.575,2.208-60.213,12.576
				c-21.318,11.859-24.004,39.672-20.359,61.255c2.258,13.37,7.421,26.306,14.051,38.083c1.582,2.81,5.901,0.29,4.317-2.523
				c-12.923-22.955-21.972-54.959-8.265-79.554c11.363-20.389,36.941-19.42,57.106-21.685c15.591-1.751,33.127-8.456,34.317-26.262
				c0.607-9.085-2.926-18.39-6.352-26.607c-5.229-12.542-12.466-24.217-16.365-37.299c-3.152-10.575-2.347-21.184,2.559-31.07
				C180.587,202.384,176.274,199.85,174.841,202.738L174.841,202.738z"/>
		</g>
	</g>
	<g>
		<g>
			<path fill="#1C75BC" d="M225.159,47.262c9.746-13.57,27.451-22.885,42.667-28.698c13.987-5.344,36.052-10.345,45.016,5.698
				c1.573,2.814,5.892,0.294,4.317-2.523c-9.823-17.581-32.432-14.323-48.483-8.789c-17.305,5.966-36.92,16.592-47.834,31.789
				C218.956,47.363,223.296,49.855,225.159,47.262L225.159,47.262z"/>
		</g>
	</g>
	<g>
		<g>
			<path fill="#1C75BC" d="M300,14.5c26.217-1.805,52.495-1.044,78.75-1.328c13.144-0.142,26.281-0.647,39.375-1.836
				c10.781-0.979,21.405-2.972,32.248-3.319c18.346-0.588,39.981,5.078,46.176,24.631c1.819,5.743,1.517,12.695-2.602,17.39
				c-5.381,6.135-14.688,4.072-21.282,1.551c-3.018-1.153-4.31,3.683-1.33,4.821c7.281,2.782,15.418,4.042,22.511,0.087
				c5.792-3.229,8.365-9.841,8.729-16.143c1.062-18.448-16.428-31.974-32.65-35.729c-10.687-2.474-21.974-1.823-32.778-0.631
				c-14.24,1.57-28.303,3.277-42.646,3.817C363.006,8.997,331.468,7.333,300,9.5C296.802,9.72,296.78,14.722,300,14.5L300,14.5z"/>
		</g>
	</g>
	<g>
		<g>
			<path fill="#1C75BC" d="M395.665,27.411c7.981-1.182,14.743-6.011,18.494-13.149c1.499-2.851-2.816-5.378-4.316-2.523
				c-3.218,6.121-8.689,9.841-15.506,10.851C391.155,23.061,392.512,27.878,395.665,27.411L395.665,27.411z"/>
		</g>
	</g>
	<g>
		<g>
			<path fill="#1C75BC" d="M270,117.5c11.581,0.46,18.237,12.464,30.665,9.911c3.157-0.648,1.818-5.468-1.329-4.821
				c-6.061,1.245-10.73-2.126-15.583-5.236c-4.263-2.731-8.641-4.65-13.752-4.854C266.774,112.372,266.787,117.373,270,117.5
				L270,117.5z"/>
		</g>
	</g>
	<g>
		<g>
			<path fill="#1C75BC" d="M262.232,162.768c13.338,10.968,20.209,26.923,28.729,41.493c7.6,12.996,17.791,24.69,33.523,26.788
				c10.167,1.355,20.563-0.381,29.73-4.889c6.079-2.988,11.835-6.408,18.786-6.66c6.521-0.236,12.163,4.237,17.435,7.456
				c9.287,5.669,20.558,8.109,30.889,3.953c9.66-3.886,16.406-12.771,20.807-21.87c1.305-2.699,2.349-5.528,3.281-8.374
				c1.007-3.073-3.822-4.379-4.822-1.329c-3.396,10.363-9.227,20.384-18.942,25.914c-11.396,6.486-23.433,0.676-33.385-5.533
				c-9.929-6.195-19.168-6.187-29.707-1.332c-5.803,2.673-10.981,5.839-17.331,7.087c-4.839,0.951-9.787,1.227-14.698,0.822
				c-16.349-1.346-25.782-14.847-33.184-27.925c-7.895-13.949-14.936-28.744-27.575-39.136
				C263.299,157.202,259.74,160.718,262.232,162.768L262.232,162.768z"/>
		</g>
	</g>
	<g>
		<g>
			<path fill="#1C75BC" d="M266.665,150.411c6.98-1.313,14.021-1.59,20.199,2.373c6.063,3.89,9.701,11.339,12.978,17.478
				c1.519,2.845,5.835,0.32,4.317-2.523c-3.841-7.196-7.985-14.47-14.772-19.272c-6.986-4.944-16.081-4.376-24.051-2.877
				C262.169,146.185,263.514,151.003,266.665,150.411L266.665,150.411z"/>
		</g>
	</g>
	<g>
		<g>
			<path fill="#1C75BC" d="M360.159,221.262c5.615-7.942,7.102-17.705,12-26c1.643-2.783-2.68-5.297-4.317-2.523
				c-4.896,8.292-6.399,18.078-12,26C353.975,221.378,358.313,223.872,360.159,221.262L360.159,221.262z"/>
		</g>
	</g>
	<g>
		<g>
			<path fill="#1C75BC" d="M348.411,108.665c1.982-6.768,9.516-6.429,14.925-4.254c2.994,1.204,4.281-3.634,1.329-4.821
				c-8.155-3.28-18.328-1.633-21.075,7.746C342.681,110.437,347.506,111.752,348.411,108.665L348.411,108.665z"/>
		</g>
	</g>
	<g>
		<g>
			<path fill="#1C75BC" d="M395.262,96.159c6.333-3.625,12.248-8.496,19.117-11.082c8.738-3.29,13.879,4.273,17.463,11.185
				c1.484,2.863,5.799,0.334,4.316-2.523c-3.895-7.512-9.969-15.906-19.563-14.361c-8.84,1.424-16.297,8.136-23.857,12.464
				C389.941,93.442,392.459,97.763,395.262,96.159L395.262,96.159z"/>
		</g>
	</g>
	<g>
		<g>
			<path fill="#ED1C24" d="M63.841,173.262c1.196,2.056,3.143,3.875,4.668,5.677c3.313,3.914,6.595,7.855,9.804,11.855
				c6.624,8.253,14.537,17.379,18.132,27.493c0.967,2.72,1.283,4.267-1.861,4.119c-8.067-0.381-12.329-6.282-12.329-13.926
				c-0.001-19.676,21.49-28.329,36.006-36.321c2.825-1.555,0.303-5.874-2.523-4.317c-16.986,9.352-37.583,18.525-38.483,40.639
				c-0.339,8.337,4.011,15.469,12.08,17.931c3.914,1.194,9.15,2.072,11.879-1.737c2.349-3.278-0.095-8.457-1.544-11.539
				c-2.764-5.879-6.695-11.255-10.539-16.459c-6.615-8.956-14.028-17.222-20.972-25.905c0.381,0.477,0.073,0.094,0-0.032
				C66.538,167.954,62.216,170.469,63.841,173.262L63.841,173.262z"/>
		</g>
	</g>
	<g>
		<g>
			<path fill="#ED1C24" d="M71.232,121.768c9.295,10.699,18.321,27.503,35.029,20.391c2.958-1.259,0.408-5.565-2.523-4.317
				c-13.324,5.671-21.839-11.401-28.971-19.609C72.649,115.794,69.128,119.346,71.232,121.768L71.232,121.768z"/>
		</g>
	</g>
	<g>
		<g>
			<path fill="#ED1C24" d="M75.159,52.262c6.903-11.223,17.864-20.294,30.736-23.636c14.08-3.656,25.504,4.037,30.695,17.039
				c1.18,2.957,6.018,1.668,4.821-1.329c-5.871-14.705-17.714-23.436-33.807-21.144c-15.269,2.174-28.912,13.783-36.762,26.547
				C69.147,52.493,73.473,55.002,75.159,52.262L75.159,52.262z"/>
		</g>
	</g>
	<g>
		<g>
			<path d="M549.535,211.536c16.779-16.98,27.225-37.486,24.866-61.808c-1.111-11.46-4.814-22.523-7.658-33.633
				c-2.209-8.632-4.593-18.076-2.931-27.014c1.837-9.872,10.028-14.965,19.003-17.82c11.549-3.674,23.865-4.877,35.917-3.918
				c22.181,1.764,42.023,13.513,57.44,29.018c16.929,17.026,28.026,38.541,37.268,60.447c11.203,26.56,19.876,54.118,28.738,81.52
				c1.976,6.109,11.633,3.495,9.643-2.658c-9.181-28.389-18.221-56.895-29.939-84.366c-9.848-23.085-21.754-45.033-39.592-62.973
				c-15.43-15.518-35.164-26.786-56.91-30.184c-11.596-1.812-23.241-1.254-34.748,0.899c-10.724,2.007-22.084,5.491-29.662,13.778
				c-14.615,15.985-5.082,41.095-0.402,59.102c3.413,13.133,5.837,25.917,2.571,39.36c-3.152,12.979-11.451,23.844-20.674,33.177
				C537.93,209.054,544.998,216.127,549.535,211.536L549.535,211.536z"/>
		</g>
	</g>
	<g>
		<g>
			<path d="M463.477,291.683c-12.439,5.37-24.966,5.115-37.113-0.806c-11.662-5.685-21.244-14.638-31.745-22.074
				c-21.734-15.39-50.06-19.41-75.68-13.395c-43.133,10.127-72.018,54.364-86.689,93.246c-5.44,14.416-9.145,29.879-9.249,45.346
				c-0.043,6.45,9.957,6.446,10,0c0.141-20.962,7.354-41.69,16.589-60.276c10.021-20.169,23.603-39.06,41.142-53.342
				c18.496-15.062,43.01-20.551,66.382-16.407c13.438,2.382,25.883,8.236,36.643,16.56c9.934,7.686,19.829,15.735,31.443,20.765
				c14.443,6.253,29.058,5.178,43.325-0.981C474.43,297.768,469.331,289.155,463.477,291.683L463.477,291.683z"/>
		</g>
	</g>
	<g>
		<g>
			<path d="M446.477,326.683c-14.729,9.599-32.459,4.92-48.194,0.622c-16.339-4.462-32.861-9.801-49.957-6.897
				c-33.639,5.713-53.845,41.698-60.147,72.264c-1.298,6.293,8.341,8.972,9.643,2.658c6.058-29.379,25.741-64.771,59.566-65.89
				c31.198-1.031,64.274,25.338,94.136,5.878C456.902,331.812,451.896,323.15,446.477,326.683L446.477,326.683z"/>
		</g>
	</g>
	<g>
		<g>
			<path d="M441.465,362.465c-20.812,20.104-55.333,10.052-76,31c-4.531,4.593,2.537,11.666,7.071,7.07
				c9.731-9.863,24.032-11.763,37.044-14.216c14.234-2.683,28.255-6.447,38.955-16.784
				C453.181,365.049,446.102,357.984,441.465,362.465L441.465,362.465z"/>
		</g>
	</g>
	<g>
		<g>
			<path d="M452,395c-0.564,16.161-13.221,24.715-27.44,29.134c-16.382,5.092-33.967,5.699-50.986,6.165
				c-38.461,1.052-80.497,3.32-114.623,22.951c-6.925,3.983-13.36,9.072-18.486,15.215c-4.101,4.913,2.935,12.027,7.071,7.07
				c13.899-16.654,36.348-23.63,56.779-28.206c18.534-4.152,37.671-6.167,56.645-6.721c16.794-0.49,33.557-0.699,50.203-3.257
				c15.296-2.351,32.523-7.161,42.745-19.626c5.332-6.502,7.802-14.388,8.093-22.726C462.226,388.548,452.225,388.57,452,395
				L452,395z"/>
		</g>
	</g>
	<g>
		<g>
			<path d="M495.179,437.671c-13.064,33.09-53.519,43.596-85.936,38.421c-17.15-2.737-33.695-8.465-50.792-11.533
				c-15.911-2.856-33.773-3.984-47.975,5.124c-5.408,3.469-0.399,12.128,5.047,8.635c14.704-9.43,33.997-5.68,49.985-2.165
				c17.039,3.746,33.918,9.714,51.435,10.801c17.711,1.101,36.227-1.825,52.455-9.011c16.582-7.343,28.813-20.871,35.423-37.613
				C507.192,434.324,497.518,431.745,495.179,437.671L495.179,437.671z"/>
		</g>
	</g>
	<g>
		<g>
			<path d="M515.683,454.477c-8.532,11.199-15.465,22.44-27.646,30.113c-13.039,8.213-27.088,14.022-41.885,18.203
				c-21.153,5.977-48.171,8.28-58.834-15.316c-2.652-5.869-11.268-0.78-8.635,5.047c12.053,26.674,42.07,26.972,66.758,20.811
				c16.278-4.063,31.834-10.549,46.19-19.214c6.818-4.115,12.955-8.994,18.145-15.049c5.283-6.161,9.629-13.099,14.542-19.548
				C528.228,454.392,519.535,449.419,515.683,454.477L515.683,454.477z"/>
		</g>
	</g>
	<g>
		<g>
			<path d="M536,459c0.008,17.734,1.695,38.121-15.21,48.933c-25.107,16.058-58.058,9.716-85.896,16.18
				c-26.354,6.12-45.545,25.843-68.744,38.308c-25.331,13.61-58.336,14.303-84.126,1.799c-10.346-5.016-19.236-11.839-28.5-18.536
				c-5.236-3.786-10.22,4.895-5.047,8.635c12.137,8.775,23.818,17.098,37.872,22.63c13.086,5.151,27.455,6.745,41.418,5.836
				c13.966-0.908,27.998-4.203,40.607-10.287c11.743-5.666,22.19-13.686,32.892-21.039c11.284-7.754,22.924-14.327,36.286-17.702
				c15.044-3.8,30.832-3.454,46.189-4.94c21.401-2.071,48.743-8.394,57.979-30.434c5.134-12.251,4.285-26.38,4.279-39.381
				C545.997,452.552,535.997,452.551,536,459L536,459z"/>
		</g>
	</g>
	<g>
		<g>
			<path d="M560,471c0.961,21.024-4.961,41.387-19.604,56.866c-14.187,14.998-34.543,22.824-54.777,24.898
				c-12.511,1.282-24.682,0.438-36.696-3.352c-13.761-4.342-26.648-11.169-39.961-16.662c-16.322-6.734-33.623-10.584-51.083-12.905
				c-9.624-1.28-19.523-1.969-29.169-0.555c-6.905,1.013-14.621,3.541-18.027,10.186c-2.936,5.727,5.692,10.787,8.635,5.047
				c2.571-5.015,10.464-5.54,15.522-5.866c9.116-0.586,18.379,0.431,27.377,1.827c18.891,2.932,36.59,8.447,54.052,16.219
				c12.863,5.725,25.707,11.869,39.525,14.928c11.397,2.522,23.62,2.087,35.118,0.502c20.443-2.817,39.955-11.111,54.911-25.535
				c17.681-17.05,25.28-41.442,24.177-65.598C569.707,464.579,559.705,464.551,560,471L560,471z"/>
		</g>
	</g>
	<g>
		<g>
			<path d="M578,474c0.054,23.161,3.626,50.041-7.938,71.202c-10.303,18.853-35.002,23.056-54.461,25.487
				c-13.099,1.638-26.153,2.225-39.351,1.818c-13.62-0.419-27.15-1.06-40.765-0.108c-15.147,1.058-36.208,4.252-47.487-8.567
				c-3.156-3.586-4.413-8.582-5.178-13.161c-1.061-6.35-10.696-3.647-9.643,2.658c1.568,9.387,5.971,17.319,13.771,22.864
				c6.986,4.965,16.115,6.397,24.458,6.942c8.663,0.566,17.367-0.28,26.006-0.869c14.206-0.969,28.386-0.028,42.594,0.349
				c22.945,0.609,48.162-1.452,69.872-9.426c9.481-3.482,18.676-8.709,24.871-16.867c6.918-9.109,10.235-20.223,11.896-31.396
				c2.509-16.875,1.393-33.943,1.354-50.926C587.985,467.552,577.985,467.551,578,474L578,474z"/>
		</g>
	</g>
	<g>
		<g>
			<path d="M647,436c0.173,15.105,3.727,29.731,0.879,44.813c-2.601,13.769-8.66,27.147-6.632,41.399
				c3.371,23.69,23.007,43.689,45.706,49.98c16.097,4.462,33.266,2.803,45.67-9.124c11.329-10.894,16.182-27.434,18.856-42.442
				c3.558-19.958,3.541-40.443,2.521-60.627c-0.324-6.416-10.326-6.448-10,0c0.793,15.687,0.896,31.432-0.67,47.076
				c-1.549,15.478-4.883,31.995-14.158,44.832c-9.757,13.503-26.023,14.395-40.912,10.269c-11.733-3.253-22.071-11.57-29.012-21.409
				c-7.667-10.869-9.843-22.901-7.006-35.771c2.494-11.313,6.142-22.202,6.874-33.847c0.739-11.748-1.981-23.418-2.116-35.149
				C656.926,429.556,646.926,429.549,647,436L647,436z"/>
		</g>
	</g>
	<g>
		<g>
			<path d="M686.465,407.535c9.727,7.749,21.081,12.066,32.604,5.376c10.363-6.018,16.676-18.286,22.249-28.388
				c3.117-5.649-5.52-10.693-8.635-5.047c-4.462,8.086-8.991,16.432-15.874,22.738c-7.467,6.84-16.088,3.974-23.273-1.75
				C688.547,396.49,681.421,403.518,686.465,407.535L686.465,407.535z"/>
		</g>
	</g>
	<g>
		<g>
			<path d="M700,284c-0.451-9.112,3.707-14.946,13.331-13.494c8.928,1.346,18.103,6.92,22.352,15.018
				c2.997,5.712,11.628,0.657,8.635-5.047c-5.997-11.43-18.876-18.52-31.368-20.024c-14.773-1.78-23.638,9.634-22.949,23.548
				C690.317,290.417,700.319,290.448,700,284L700,284z"/>
		</g>
	</g>
	<g>
		<g>
			<path d="M543.535,207.464c-34.452-29.629-14.268-80.544-18.252-119.406c-1.633-15.919-5.298-33.005-14.687-46.289
				c-10.04-14.204-25.98-18.202-41.926-11.591c-5.868,2.433-3.299,12.112,2.658,9.643c6.357-2.636,13.676-4.463,20.312-1.624
				c6.292,2.692,10.519,8.276,13.741,14.093c7.283,13.145,9.787,29.236,10.539,44.062c2.025,39.927-14.826,87.765,20.544,118.184
				C541.326,218.717,548.433,211.676,543.535,207.464L543.535,207.464z"/>
		</g>
	</g>
	<g>
		<g>
			<path d="M467,30c-28.763,1.408-54.324,15.419-82.366,20.264c-10.994,1.899-21.815,0.023-31.867-4.625
				c-9.985-4.617-18.726-11.427-28.877-15.699c-16.711-7.032-43.292-14.045-58.875-0.861c-8.073,6.83-10.156,18.769-6.512,28.406
				c4.299,11.368,16.047,17.479,27.864,15.921c8.618-1.137,16.374-5.494,24.157-9.088c5.85-2.701,0.766-11.319-5.047-8.635
				c-10.652,4.919-24.575,13.358-34.756,3.022c-7.008-7.114-4.502-19.489,3.874-24.04c7.915-4.301,18.856-2.817,27.256-1.153
				c9.25,1.832,18.479,5.021,26.625,9.806c9.375,5.507,18.383,11.296,28.758,14.808c10.251,3.469,21.031,3.341,31.579,1.519
				C415.432,55.045,439.704,41.336,467,40C473.418,39.686,473.448,29.684,467,30L467,30z"/>
		</g>
	</g>
	<g>
		<g>
			<path d="M505.671,230.179c-7.62,1.299-14.868,0.191-20.008-5.921c-4.455-5.299-5.521-13.449-5.878-20.082
				c-0.416-7.708,0.441-15.469,2.132-22.985c2.23-9.92,5.673-19.167,6.241-29.457c1.335-24.163-14.917-43.092-33.166-56.833
				c-10.492-7.9-22.11-9.359-33.283-1.881c-10.589,7.087-18.64,17.486-27.93,26.078c-9.447,8.737-20.787,16.606-33.115,20.557
				c-5.625,1.803-11.432,2.353-17.062,0.351c-6.671-2.373-9.405-9.771-12.285-15.529c-2.884-5.769-11.51-0.703-8.635,5.047
				c4.721,9.441,9.577,17.572,20.282,20.788c9.484,2.85,19.759-0.346,28.46-4.137c9.34-4.07,17.809-10.169,25.605-16.657
				c9.209-7.662,16.798-17.007,25.838-24.847c4.627-4.012,10.157-7.796,16.564-6.642c6.775,1.221,12.349,6.886,17.032,11.507
				c8.463,8.352,16.454,15.547,20.046,27.327c5.718,18.751-4.639,37.098-6.433,55.669c-1.132,11.722-0.262,24.722,5.831,35.08
				c6.887,11.708,19.868,14.351,32.42,12.21C514.677,238.739,511.977,229.103,505.671,230.179L505.671,230.179z"/>
		</g>
	</g>
	<g>
		<g>
			<path d="M464.317,255.477c-10.143-18.109-20.462-36.093-40.541-44.317c-19.858-8.133-40.962-1.211-61.543-2.998
				c-9.505-0.825-18.106-4.599-22.389-13.497c-2.664-5.533-0.544-9.992,4.348-13.057c11.928-7.473,28.716-7.683,42.343-8.467
				c11.246-0.647,22.979-1.127,33.591,3.368c11.574,4.903,18.321,15.201,22.053,26.82c1.963,6.115,11.62,3.499,9.643-2.658
				c-3.219-10.026-8.181-19.436-16.316-26.324c-7.32-6.198-16.461-9.487-25.864-10.818c-15.975-2.261-33.81-0.388-49.66,2.435
				c-12.828,2.284-31.232,7.888-31.348,23.814c-0.063,8.814,5.975,16.919,12.782,21.853c7.926,5.745,18.745,6.76,28.208,6.885
				c17.735,0.235,35.59-4.701,52.556,2.738c16.535,7.25,25.134,24.325,33.503,39.269
				C458.833,266.149,467.472,261.109,464.317,255.477L464.317,255.477z"/>
		</g>
	</g>
	<g>
		<g>
			<path fill="#ED1C24" d="M378.768,411.768c6.909-5.659,12.532,1.923,17.328,6.589c4.987,4.852,10.792,8.215,17.589,4.813
				c7.321-3.665,10.636-11.598,13.19-18.841c1.092-3.096,2.202-6.248,4.62-8.57c3.694-3.549,10.454-2.228,14.84-1.347
				c3.148,0.631,4.489-4.188,1.33-4.822c-8.306-1.666-17.187-1.971-22.317,5.838c-4.642,7.065-4.738,15.65-11.474,21.56
				c-7.814,6.856-14.043-2.268-19.564-7.361c-5.985-5.521-12.521-6.764-19.078-1.393
				C372.736,410.276,376.295,413.793,378.768,411.768L378.768,411.768z"/>
		</g>
	</g>
	<g>
		<g>
			<path fill="#ED1C24" d="M384.411,478.665c3.484-9.39,13.813-15.076,22.753-18.188c10.393-3.616,20.279-2.007,28.577,5.272
				c9.101,7.985,19.731,26.702,34.171,24.579c10.596-1.558,13.685-15.504,15.227-24.146c2.301-12.894,2.36-26.127,2.361-39.184
				c0-3.225-5-3.225-5,0c0,10.359,2.025,66.939-19.219,57.244c-15.99-7.298-21.991-27.397-40.685-30.45
				c-15.823-2.583-37.333,8.247-43.007,23.541C378.465,480.365,383.299,481.66,384.411,478.665L384.411,478.665z"/>
		</g>
	</g>
	<g>
		<g>
			<path fill="#ED1C24" d="M387.262,552.158c14.404-7.814,27.297-17.979,41.341-26.373c6.953-4.157,14.263-7.604,21.991-10.051
				c8.807-2.786,17.827-3.17,26.935-4.134c15.983-1.692,32.372-5.864,44.188-17.421c10.096-9.874,10.732-24.563,13.695-37.515
				c0.718-3.14-4.103-4.473-4.822-1.33c-3.063,13.392-3.596,27.407-14.445,37.225c-13.057,11.814-32.389,13.792-49.144,14.94
				c-32.181,2.205-55.308,25.717-82.262,40.342C381.904,549.379,384.427,553.696,387.262,552.158L387.262,552.158z"/>
		</g>
	</g>
	<g>
		<g>
			<path d="M766.335,224.411c10.772,3.146,18.378,10.423,21.872,21.087c3.55,10.834,1.065,21.659,0.542,32.692
				c-0.618,13.018,1.48,25.979,2.778,38.891c1.407,14.013,0.766,27.152-1.914,40.968c-2.448,12.62-4.252,24.564-3.068,37.436
				c0.535,5.824,1.83,11.581,2.582,17.38c1.418,10.928,3.557,32.54-13.462,29.726c-3.153-0.521-4.505,4.297-1.33,4.822
				c6.617,1.094,12.707,0.055,16.846-5.584c3.928-5.353,3.99-13.283,3.773-19.6c-0.251-7.327-1.539-14.599-2.707-21.821
				c-1.876-11.603-1.25-22.72,0.879-34.27c2.622-14.226,4.902-27.563,3.984-42.104c-0.893-14.142-3.467-28.101-3.446-42.306
				c0.019-11.981,2.812-23.265,0.032-35.168c-2.244-9.608-8.099-17.825-16.478-22.994c-2.935-1.809-6.263-3.016-9.554-3.977
				C764.563,218.683,763.247,223.509,766.335,224.411L766.335,224.411z"/>
		</g>
	</g>
	<g>
		<g>
			<path d="M762,287.5c8.999,0.826,18.658-1.758,17.354-12.629c-1.055-8.797-6.603-16.267-10.195-24.132
				c-1.338-2.93-5.646-0.387-4.316,2.523c2.723,5.96,6.318,11.452,8.469,17.68c0.95,2.753,1.96,6.318,0.511,9.066
				c-1.928,3.656-8.578,2.79-11.821,2.492C758.788,282.206,758.816,287.208,762,287.5L762,287.5z"/>
		</g>
	</g>
	<g>
		<g>
			<path d="M761.589,320.665c4.429,10.97,11.853,24.506,9,36.67c-0.735,3.137,4.086,4.468,4.822,1.33
				c3.13-13.349-4.139-27.286-9-39.33C765.22,316.386,760.382,317.673,761.589,320.665L761.589,320.665z"/>
		</g>
	</g>
	<g>
		<g>
			<path d="M752.5,394c-0.293,8.003-5.777,14.471-6.911,22.335c-0.454,3.153,4.363,4.511,4.822,1.33
				c1.204-8.354,6.774-15.073,7.089-23.665C757.618,390.774,752.618,390.786,752.5,394L752.5,394z"/>
		</g>
	</g>
	<g>
		<g>
			<path d="M737.5,320c1.957,17.076,1.12,33.899-3.354,50.531c-4.748,17.652-13.556,34.029-17.234,52.012
				c-1.617,7.906-2.306,16.014-0.784,24.008c1.497,7.871,7.398,10.632,13.641,5.217c2.44-2.116-1.112-5.638-3.535-3.535
				c-2.768,2.4-3.9,1.861-4.919-1.495c-1.115-3.677-1.089-7.732-1.011-11.536c0.216-10.482,3.58-20.715,7.084-30.488
				c5.078-14.167,10.971-28.036,13.924-42.854c2.75-13.8,2.786-27.922,1.189-41.859C742.138,316.835,737.133,316.8,737.5,320
				L737.5,320z"/>
		</g>
	</g>
	<g>
		<g>
			<path d="M748,359.5c21.661-0.476,31.311-22.84,33.771-41.441c1.537-11.62-0.093-22.636-5.335-33.178
				c-5.63-11.321-14.345-20.67-19.025-32.545c-1.169-2.964-6.006-1.674-4.822,1.329c3.898,9.889,10.028,18.249,15.718,27.131
				c6.033,9.42,9.65,19.734,9.08,31.03c-0.869,17.238-8.572,42.217-29.387,42.674C744.78,354.57,744.773,359.571,748,359.5
				L748,359.5z"/>
		</g>
	</g>
	<g>
		<g>
			<path d="M762.262,425.158c17.142-10.008,30.14-33.637,11.506-48.926c-2.471-2.027-6.029,1.488-3.535,3.535
				c16.047,13.167,3.983,32.62-10.494,41.074C756.956,422.466,759.472,426.788,762.262,425.158L762.262,425.158z"/>
		</g>
	</g>
	<g>
		<g>
			<path d="M454.317,276.477c-16.646-36.862-62.357-45.666-98.616-47.551c-18.592-0.967-37.283-0.02-55.778,1.973
				c-28.962,3.121-53.676,19.746-81.012,28.152c-24.81,7.629-53.514,7.054-78.75,1.889c-22.458-4.596-43.868-14.436-63.332-26.349
				c-19.933-12.199-38.875-27.848-51.552-47.707C11.924,165.961,7.35,137.822,9.136,113.401
				c0.912-12.465,4.332-25.397,13.144-34.635c6.064-6.357,14.995-9.08,23.204-5.341c10.454,4.761,15.722,16.099,18.884,26.453
				C68.71,114.094,69.779,129.218,69,144c-0.34,6.447,9.662,6.415,10,0c0.769-14.583-0.469-29.239-4.051-43.409
				c-2.901-11.476-7.91-22.804-16.933-30.766c-6.875-6.066-16.115-9.327-25.254-7.733C22.689,63.848,15.027,70.759,9.396,78.94
				C2.232,89.347-0.077,102.64-0.981,114.994c-0.979,13.396,0.68,27.011,3.504,40.096c2.512,11.638,6.254,23.151,12.133,33.539
				c5.489,9.699,12.807,18.403,20.646,26.275c32.868,33.004,79.627,55.259,126.043,58.956c13.512,1.076,27.204,0.741,40.634-1.101
				c13.611-1.867,25.932-6.048,38.553-11.362c13.521-5.693,26.863-11.805,40.887-16.196c10.666-3.339,21.385-4.744,32.467-5.586
				c25.133-1.911,50.91-1.787,75.627,3.606c22.979,5.014,46.013,15.812,56.169,38.302
				C448.333,287.393,456.949,282.304,454.317,276.477L454.317,276.477z"/>
		</g>
	</g>
</g>
<g id="gens">
	<circle fill="#1C75BC" cx="187.042" cy="114.695" r="96"/>
	<g>
		<path fill="#F1F2F2" d="M187.599,111.578c1.618,0,3.159,0.338,4.559,0.946c0.105-2.286,0.893-4.4,2.158-6.15
			c-0.89-0.186-1.808-0.284-2.748-0.284h-8.906c-0.938,0-1.856,0.098-2.739,0.281c1.347,1.869,2.152,4.15,2.165,6.62
			C183.724,112.091,185.602,111.578,187.599,111.578z"/>
		<circle fill="#F1F2F2" cx="187.112" cy="94.876" r="10.496"/>
		<path fill="#F1F2F2" d="M203.597,123.283c5.342,0,9.67-4.329,9.67-9.67c0-5.342-4.328-9.67-9.67-9.67
			c-5.291,0-9.582,4.251-9.662,9.523c3.049,1.912,5.187,5.146,5.576,8.901C200.753,122.949,202.134,123.283,203.597,123.283z"/>
		<path fill="#F1F2F2" d="M170.629,103.942c-5.343,0-9.671,4.329-9.671,9.67s4.328,9.67,9.671,9.67c1.892,0,3.651-0.553,5.143-1.493
			c0.475-3.091,2.132-5.794,4.499-7.634c0.01-0.181,0.027-0.36,0.027-0.543C180.298,108.271,175.968,103.942,170.629,103.942z"/>
		<path fill="#F1F2F2" d="M209.878,103.736c3.049,1.912,5.188,5.146,5.576,8.9c1.242,0.582,2.623,0.916,4.086,0.916
			c5.343,0,9.671-4.328,9.671-9.67c0-5.341-4.328-9.67-9.671-9.67C214.249,94.212,209.958,98.464,209.878,103.736z"/>
		<circle fill="#F1F2F2" cx="187.599" cy="123.596" r="9.67"/>
		<path fill="#F1F2F2" d="M207.7,123.942h-8.143c-0.09,3.258-1.479,6.191-3.679,8.301c6.067,1.805,10.509,7.434,10.509,14.081v3.092
			c8.039-0.296,12.674-2.573,12.979-2.728l0.646-0.328h0.067v-10.036C220.081,129.497,214.526,123.942,207.7,123.942z"/>
		<path fill="#F1F2F2" d="M223.644,114.212h-8.143c-0.088,3.258-1.479,6.191-3.677,8.3c6.067,1.806,10.508,7.434,10.508,14.082
			v3.092c8.039-0.297,12.673-2.573,12.979-2.729l0.646-0.328h0.069v-10.035C236.024,119.767,230.472,114.212,223.644,114.212z"/>
		<path fill="#F1F2F2" d="M179.314,132.243c-2.189-2.1-3.575-5.018-3.677-8.255c-0.301-0.022-0.6-0.046-0.908-0.046h-8.203
			c-6.828,0-12.383,5.555-12.383,12.382v10.037l0.025,0.155l0.691,0.218c5.227,1.633,9.893,2.384,13.944,2.621v-3.03
			C168.805,139.676,173.244,134.049,179.314,132.243z"/>
		<path fill="#F1F2F2" d="M191.7,133.926h-8.205c-6.828,0-12.383,5.556-12.383,12.381v10.037l0.026,0.157l0.69,0.216
			c6.516,2.035,12.177,2.715,16.836,2.715c9.101,0,14.375-2.594,14.701-2.76l0.646-0.328h0.068v-10.037
			C204.081,139.481,198.526,133.926,191.7,133.926z"/>
		<path fill="#F1F2F2" d="M154.544,113.861c1.463,0,2.844-0.335,4.086-0.916c0.39-3.755,2.527-6.99,5.576-8.902
			c-0.08-5.271-4.371-9.523-9.662-9.523c-5.343,0-9.671,4.33-9.671,9.672C144.873,109.532,149.201,113.861,154.544,113.861z"/>
		<path fill="#F1F2F2" d="M162.26,122.822c-2.198-2.109-3.589-5.044-3.677-8.303h-8.143c-6.828,0-12.382,5.556-12.382,12.383v10.037
			h0.069l0.646,0.327c0.306,0.154,4.939,2.433,12.979,2.729v-3.092C151.752,130.254,156.191,124.626,162.26,122.822z"/>
		<path fill="#F1F2F2" d="M165.854,102.986c1.16-0.471,2.93-1.047,4.62-1.047c1.967,0,3.891,0.506,5.607,1.469
			c0.382-0.375,0.732-0.783,1.05-1.22c-1.63-2.142-2.52-4.765-2.52-7.464c0-1.818,0.406-3.623,1.18-5.262
			c-1.762-1.592-4.01-2.461-6.399-2.461c-4.348,0-8.133,2.943-9.241,7.088C163.399,95.98,165.515,99.284,165.854,102.986z"/>
		<path fill="#F1F2F2" d="M197.175,101.64c0.336,0.535,0.729,1.037,1.176,1.506c1.588-0.792,3.334-1.208,5.092-1.208
			c1.729,0,3.386,0.442,4.472,0.813c0.34-4.013,2.767-7.555,6.399-9.35c-1.332-3.806-4.938-6.402-9.021-6.402
			c-2.64,0-5.14,1.084-6.946,2.992c0.635,1.513,0.955,3.101,0.955,4.729C199.302,97.214,198.567,99.593,197.175,101.64z"/>
	</g>
	<circle fill="#ED1C24" cx="50.527" cy="47.728" r="28.795"/>
	<circle fill="#ED1C24" cx="49.91" cy="111.955" r="27.775"/>
	<circle fill="#ED1C24" cx="49.91" cy="175.814" r="27.775"/>
	<circle fill="#1C75BC" cx="322.909" cy="175.324" r="27.775"/>
	<circle fill="#1C75BC" cx="322.909" cy="111.463" r="27.775"/>
	<circle fill="#1C75BC" cx="322.91" cy="46.62" r="27.775"/>
	<circle fill="#1C75BC" cx="385.243" cy="175.815" r="27.775"/>
	<circle fill="#1C75BC" cx="385.243" cy="111.955" r="27.775"/>
	<circle fill="#1C75BC" cx="385.243" cy="47.112" r="27.774"/>
	<circle fill="#1C75BC" cx="448.577" cy="175.815" r="27.775"/>
	<circle fill="#1C75BC" cx="448.577" cy="111.955" r="27.775"/>
	<circle fill="#1C75BC" cx="448.577" cy="47.111" r="27.774"/>
	<g id="infos">
		<path fill="#F1F2F2" d="M400.864,100.003c-1.309-0.375-2.672,0.384-3.046,1.692l-0.193,0.677h-22.987l-0.346-2.77
			c-0.154-1.234-1.203-2.159-2.446-2.159h-6.161c-1.361,0-2.464,1.103-2.464,2.464c0,1.361,1.103,2.464,2.464,2.464h3.986
			l2.195,17.557c0.154,1.233,1.202,2.159,2.445,2.159h20.947c1.101,0,2.067-0.729,2.37-1.787l4.929-17.252
			C402.93,101.741,402.172,100.376,400.864,100.003z M382.936,112.23v-2.464h4.929v2.464H382.936z M387.865,114.694v2.466h-4.929
			v-2.466H387.865z M382.936,107.301v-2.465h4.929v2.465H382.936z M374.946,104.836h5.525v2.465h-5.217L374.946,104.836z
			 M375.562,109.767h4.909v2.464h-4.602L375.562,109.767z M376.177,114.694h4.294v2.466h-3.985L376.177,114.694z M393.398,117.16
			h-3.07v-2.466h3.775L393.398,117.16z M394.807,112.23h-4.478v-2.464h5.183L394.807,112.23z M396.215,107.301h-5.887v-2.465h6.591
			L396.215,107.301z M373.079,128.249c0,2.042,1.654,3.697,3.696,3.697c2.042,0,3.696-1.655,3.696-3.697l0,0
			c0-2.042-1.655-3.696-3.696-3.696C374.733,124.552,373.079,126.207,373.079,128.249z M387.865,128.249
			c0,2.042,1.655,3.697,3.696,3.697c2.042,0,3.697-1.655,3.697-3.697l0,0c0-2.042-1.655-3.696-3.697-3.696
			C389.52,124.552,387.865,126.207,387.865,128.249z"/>
		<path fill="#F1F2F2" d="M399.636,36.118v-4.797h-33.583v26.387c0,1.324,1.074,2.398,2.399,2.398h32.384
			c1.987,0,3.598-1.61,3.598-3.598V36.118H399.636z M397.237,57.708h-28.785V33.719h28.785V57.708z M370.851,38.517h23.987v2.398
			h-23.987V38.517z M385.243,43.315h9.595v2.398h-9.595V43.315z M385.243,48.113h9.595v2.398h-9.595V48.113z M385.243,52.91h7.197
			v2.398h-7.197V52.91z M370.851,43.315h11.993v11.993h-11.993V43.315z"/>
		<path fill="#F1F2F2" d="M459.426,31.249h-21.698c-1.491,0-2.712,1.221-2.712,2.712v23.506c0,1.491,1.221,2.712,2.712,2.712h21.698
			c1.492,0,2.712-1.221,2.712-2.712V33.96C462.138,32.469,460.918,31.249,459.426,31.249z M458.521,56.562h-19.89V34.865h19.89
			V56.562z M442.248,47.522h12.657v1.808h-12.657V47.522z M442.248,51.138h12.657v1.808h-12.657V51.138z M444.057,39.385
			c0,1.498,1.214,2.713,2.712,2.713s2.713-1.215,2.713-2.713s-1.215-2.712-2.713-2.712S444.057,37.887,444.057,39.385z
			 M448.577,42.098h-3.616c-1.492,0-2.713,0.813-2.713,1.808v1.809h9.041v-1.809C451.289,42.912,450.068,42.098,448.577,42.098z"/>
		<path fill="#F1F2F2" d="M445.181,162.231c-1.792,0-3.522,0.282-5.144,0.836c-1.518,0.52-2.869,1.254-4.015,2.181
			c-2.124,1.719-3.294,3.919-3.294,6.197c0,1.273,0.355,2.51,1.059,3.676c0.731,1.214,1.836,2.327,3.193,3.217
			c1.076,0.706,1.801,1.837,1.993,3.111c0.032,0.212,0.058,0.425,0.077,0.638c0.096-0.089,0.191-0.181,0.287-0.275
			c0.854-0.851,2.006-1.321,3.195-1.321c0.189,0,0.379,0.012,0.569,0.037c0.685,0.087,1.384,0.131,2.078,0.131
			c1.792,0,3.522-0.281,5.144-0.836c1.518-0.52,2.869-1.254,4.014-2.181c2.125-1.719,3.295-3.919,3.295-6.197
			s-1.17-4.478-3.295-6.197c-1.145-0.927-2.496-1.661-4.014-2.181C448.703,162.513,446.973,162.231,445.181,162.231z
			 M445.181,157.704L445.181,157.704c9.378,0,16.979,6.152,16.979,13.741s-7.602,13.741-16.979,13.741
			c-0.9,0-1.784-0.057-2.647-0.167c-3.646,3.633-7.859,4.285-12.068,4.379v-0.889c2.273-1.109,4.104-3.129,4.104-5.438
			c0-0.322-0.025-0.638-0.072-0.947c-3.84-2.52-6.295-6.367-6.295-10.68C428.201,163.856,435.803,157.704,445.181,157.704z
			 M463.434,188.504c0,1.979,1.285,3.71,3.255,4.66v0.763c-3.647-0.082-6.997-0.64-10.157-3.754
			c-0.748,0.094-1.514,0.143-2.295,0.143c-3.377,0-6.488-0.911-8.971-2.441c5.117-0.019,9.948-1.658,13.612-4.624
			c1.847-1.495,3.304-3.249,4.331-5.212c1.088-2.083,1.641-4.301,1.641-6.594c0-0.37-0.017-0.737-0.045-1.103
			c2.566,2.121,4.148,5.01,4.148,8.195c0,3.696-2.129,6.995-5.457,9.154C463.455,187.957,463.434,188.228,463.434,188.504z"/>
		<path fill="#F1F2F2" d="M463.854,96.326l-0.14-0.14c-3.258-3.258-8.59-3.258-11.849,0l-7.549,7.55
			c-3.258,3.258-3.258,8.59,0,11.848l0.139,0.139c0.271,0.271,0.56,0.516,0.856,0.743l2.765-2.763
			c-0.323-0.19-0.628-0.418-0.903-0.694l-0.141-0.141c-1.77-1.768-1.77-4.646,0-6.417l7.55-7.549c1.769-1.77,4.646-1.77,6.416,0
			l0.14,0.139c1.77,1.77,1.77,4.648,0,6.416l-3.415,3.417c0.593,1.463,0.874,3.024,0.849,4.582l5.282-5.282
			C467.112,104.915,467.112,99.583,463.854,96.326z M452.697,107.204c-0.271-0.271-0.559-0.516-0.855-0.742l-2.765,2.763
			c0.322,0.19,0.627,0.418,0.903,0.695l0.14,0.14c1.77,1.769,1.77,4.647,0,6.417l-7.549,7.55c-1.77,1.77-4.647,1.77-6.417,0
			l-0.14-0.14c-1.769-1.77-1.769-4.648,0-6.417l3.416-3.416c-0.594-1.464-0.874-3.025-0.85-4.582l-5.281,5.282
			c-3.259,3.258-3.259,8.59,0,11.848l0.14,0.14c3.257,3.258,8.589,3.258,11.848,0l7.55-7.549c3.257-3.258,3.257-8.591,0-11.849
			L452.697,107.204z"/>
		<path fill="#F1F2F2" d="M342.461,165.547l-9.775-9.775l2.793-2.793l9.775,9.775L342.461,165.547z M339.668,168.34l-1.396,15.362
			c-12.569,0-30.725,13.966-30.725,13.966l-2.319-2.319l11.944-11.944c0.479,0.191,1.001,0.297,1.547,0.297
			c2.315,0,4.19-1.875,4.19-4.19c0-2.313-1.875-4.189-4.19-4.189c-2.314,0-4.189,1.876-4.189,4.189c0,0.548,0.106,1.07,0.297,1.549
			l-11.943,11.943l-2.319-2.319c0,0,13.965-18.155,13.965-30.724l15.362-1.396L339.668,168.34z"/>
		<path fill="#F1F2F2" d="M364.633,184.977c0,0-1.748,7.071,4.847,7.071c6.594,0,7.309-2.463,7.309-2.463s1.669,1.827,2.781,2.066
			c1.112,0.238,11.043,0.079,11.043,0.079s1.828-2.542-3.894-2.939c0,0,1.749-2.781,1.113-4.768l1.43-0.238
			c0,0,2.384,6.356,3.973,7.786l3.257,0.08c0,0,1.033-0.477-1.589-2.463c-2.622-1.987-2.065-8.422-1.59-10.487
			c0.477-2.065,0.557-7.071-0.158-9.455c-0.715-2.384,0-0.397,0-0.397s4.528,1.112,5.402-1.668c0,0,1.112-0.478,0.873-1.509
			c0,0-3.575-1.589-4.211-1.907c0,0-0.477-1.42-1.847-1.926c0,0,0.467-1.977-0.14-2.285c0,0-2.145,1.351-2.304,1.749
			c0,0-0.159-2.305-0.557-2.701c0,0-2.701,1.748-2.542,4.211c0,0-3.814,5.721-3.337,9.534c0,0-12.871,4.767-9.693,14.698
			C374.802,187.042,369.876,189.268,364.633,184.977z"/>
		<path fill="#F1F2F2" d="M342.051,41.41c-1.273-3.091-3.679-4.661-7.153-4.661c0,0-2.282,0-4.166,0
			c0.706-1.591,1.489-3.899,1.489-6.681c0-0.762-0.06-1.553-0.205-2.358c-0.547-3.232-2.755-4.952-5.89-4.607
			c-1.242,0.144-1.668,1.322-2.699,4.181c-0.854,2.37-2.024,5.615-3.722,8.225c-1.248,1.917-3.471,3.431-5.338,4.363v-0.238h-13.742
			v20.42h13.746v-1.125c2.164-0.107,3.394-0.044,3.682,0.049l2.46,1.428l1.838,1.147c1.786,0.962,9.598,1.054,12.949,0.557
			c4.306-0.628,5.347-4.158,5.39-4.31C341.03,56.629,343.995,46.125,342.051,41.41z M338.096,57.058
			c-0.027,0.078-0.651,2.012-3.187,2.375c-3.604,0.536-10.291,0.209-11.283-0.263c0.008,0.005-1.63-1.021-1.63-1.021l-3.09-1.737
			c-0.717-0.24-2.342-0.266-4.535-0.17v-13.45c2.214-0.895,5.644-2.818,7.599-5.811c1.87-2.871,3.104-6.286,4.002-8.784
			c0,0,0.792-1.974,0.984-2.43c1.369,0.007,2.124,0.76,2.406,2.392c0.111,0.638,0.155,1.272,0.155,1.885
			c0,4.047-2.079,7.269-2.108,7.308l-1.371,2.088l8.86,0.005c2.368,0,3.802,0.922,4.656,2.992
			C340.898,45.697,338.948,54.101,338.096,57.058z"/>
		<rect x="31.304" y="27.063" fill="none" width="41.329" height="41.331"/>
		<path fill="#010101" d="M72.227,37.594c0.535-0.536,0.578-0.928-0.419-0.928c-1,0-7.243,0-8.057,0s-0.847,0.025-1.294,0.472
			c-0.447,0.447-7.318,7.323-7.318,7.323s8.605,0,9.342,0c0.739,0,1.006-0.058,1.451-0.505
			C66.375,43.511,71.692,38.127,72.227,37.594z"/>
		<path fill="#010101" d="M62.102,27.469c0.534-0.532,0.928-0.577,0.928,0.42c0,0.997,0,7.241,0,8.054
			c0,0.814-0.024,0.849-0.472,1.295c-0.447,0.447-7.324,7.319-7.324,7.319s0-8.606,0-9.344s0.059-1.005,0.506-1.449
			C56.184,33.321,61.569,28.003,62.102,27.469z"/>
		<path fill="#010101" d="M33.88,53.373c-3.436,3.437-3.437,9.006-0.002,12.442c3.436,3.436,9.009,3.436,12.444,0
			C47.8,64.336,55.861,56.278,57.34,54.8c3.436-3.435,3.436-9.006,0-12.445c-3.437-3.436-9.007-3.434-12.444,0
			C43.418,43.835,35.359,51.894,33.88,53.373z"/>
		<g>
			<path fill="#010101" d="M43.096,113.258c-0.676,1.376-0.495,2.576,0.522,3.722c0.053,0.062,0.106,0.147,0.165,0.223
				c0.094,0.12,0.094,0.146-0.063,0.146c-0.105,0-0.195,0-0.285,0c-1.576,0-3.151,0.07-4.727,0.074
				c-0.534,0.001-0.645,0.153-0.646,0.688c-0.003,0.883-0.001,1.951-0.001,2.834c0,0.611-0.848,0.959-1.66,1.007
				c-0.976,0.058-1.505-1.247-1.485-1.977c0.013-0.444,0.016-0.885-0.081-1.318c-0.242-1.087-0.51-1.957-0.52-3.085
				c-0.01-1.306-0.005-2.614,0.017-3.92c0.004-0.305,0.092-0.692,0.285-0.902c0.181-0.196,0.249-0.398,0.269-0.604
				c0.035-0.37-0.203-0.65-0.427-0.623c-0.225,0.025-0.429-0.596-0.505-1.388c-0.046-0.478-0.086-0.956-0.061-1.437
				c0.025-0.467,0.113-0.872,0.284-1.305c0.035-0.088,0.53-1.392,0.284-1.341c-0.102,0.021-0.194,0.042-0.29,0.061
				c-0.159,0.034-0.295-0.716-0.298-1.676c-0.002-0.583,0-1.162,0.021-1.738c0.023-0.657-0.085-1.253-0.459-1.791
				c-0.189-0.273-0.185-0.489,0.017-0.785c0.279-0.408,0.357-0.858,0.262-1.275c-0.168-0.721-1.393-0.682-1.519,0.072
				c-0.066,0.403,0.043,0.838,0.322,1.319c0.072,0.123,0.101,0.363,0.031,0.464c-0.527,0.741-0.584,1.567-0.548,2.435
				c0.036,0.853,0.008,1.709,0.005,2.563c0,0.069-0.002,0.137-0.007,0.204c-0.007,0.113-0.042,0.212-0.075,0.225
				c-0.029,0.011-0.047,0.018-0.063,0.015c-0.141-0.027-0.28-0.06-0.421-0.092c-0.073-0.017,0.386,2.292,0.394,2.417
				c0.033,0.526,0.008,1.052-0.033,1.577c-0.069,0.869-0.388,1.546-0.712,1.505c-0.323-0.042-0.622,0.279-0.44,0.668
				c0.101,0.214,0.256,0.416,0.485,0.6c0.208,0.168,0.44,0.566,0.444,0.861c0.04,2.34,0.174,4.515-0.36,6.783
				c-0.103,0.437-0.174,0.948-0.219,1.463c-0.072,0.814-0.434,1.492-0.777,1.73c-0.169,0.117-0.227,0.298-0.227,0.69
				c0,0.972,0,1.942,0,2.915c0,0.348,0,0.695,0,1.047c0,0.578,0.792,1.036,1.771,1.021l9.867-0.144l3.558,0.054
				c0.977,0.015,1.767-0.111,1.782-0.276c0.009-0.099,0.019-0.2,0.019-0.301c0-3.442,1.333-6.23,2.946-6.23
				c1.615,0,2.934,2.788,2.934,6.23c0,0.116-0.036,0.231-0.075,0.346c-0.063,0.186,0.708,0.354,1.686,0.369l13.579,0.202
				c0.978,0.015,1.771-0.442,1.771-1.021c0-0.351,0-0.697,0-1.046c0-0.973,0-1.944,0-2.916c0-0.729,0.094-0.729-0.641-0.94
				c-0.089-0.026,0.046-2.535,0.01-2.742c-0.19-1.102-0.487-1.912-0.491-3.063c-0.005-1.308-0.001-2.615,0.021-3.92
				c0.005-0.295,0.117-0.694,0.326-0.863c0.245-0.196,0.277-0.412,0.25-0.643c-0.05-0.396-0.377-0.687-0.688-0.662
				c-0.311,0.024-0.58-0.627-0.56-1.488c0.012-0.52,0.051-1.038,0.162-1.546c0.091-0.425,0.293-0.806,0.459-1.189
				c0.28-0.647,0.162-1.217,0.056-1.19c-0.063,0.016-0.124,0.031-0.194,0.045c-0.015,0.002-0.027-0.005-0.053-0.018
				c-0.029-0.012-0.06-0.11-0.063-0.223c-0.002-0.067-0.005-0.135-0.005-0.205c-0.002-0.854-0.024-1.71,0.012-2.563
				c0.036-0.868-0.02-1.694-0.546-2.436c-0.072-0.101-0.041-0.34,0.031-0.464c0.28-0.481,0.389-0.916,0.321-1.318
				c-0.126-0.754-1.351-0.793-1.518-0.072c-0.096,0.417-0.017,0.868,0.261,1.275c0.203,0.295,0.207,0.511,0.018,0.786
				c-0.374,0.537-0.483,1.133-0.459,1.79c0.02,0.577,0.022,1.155,0.02,1.738c-0.003,0.96-0.138,1.711-0.297,1.677
				c-0.159-0.033-0.3,0.273-0.176,0.656c0.063,0.196,0.147,0.377,0.245,0.688c0.103,0.323,0.049,0.731,0.051,1.066
				c0,0.114-0.013,0.82-0.02,1.523c-0.01,0.84-0.162,1.498-0.387,1.472c-0.225-0.028-0.462,0.25-0.427,0.619
				c0.02,0.205,0.085,0.406,0.268,0.602c0.194,0.209,0.28,0.588,0.285,0.893c0.022,1.437,0.03,2.874,0.011,4.312
				c-0.016,1.18-0.575,2.222-0.601,3.372c-0.031,1.331-0.012,2.363-1.582,2.457c-0.667,0.042-2.188-0.131-2.188-1.104
				c0-0.031-0.035-1.147-0.035-1.241c0.013-0.883,0.005-0.553,0.005-1.437c0-0.746-0.067-0.892-0.795-0.892
				c-1.531,0-3.063,0-4.592,0c-0.085,0-0.17,0.019-0.267,0.032c-0.147,0.023-0.197-0.063-0.101-0.152
				c0.064-0.059,0.118-0.106,0.171-0.166c1.021-1.12,1.256-2.384,0.553-3.723c-0.37-0.706-0.87-1.357-1.416-1.943
				c-0.821-0.879-2.085-1.625-3.296-2.269c-0.863-0.458-2.317-0.556-3.228-0.2c-1.146,0.45-2.578,1.063-3.232,1.547
				C44.506,111.213,43.657,112.122,43.096,113.258z"/>
		</g>
		<path fill="#F1F2F2" d="M337.855,110.4l6.798,13.964c0.276,0.568-0.015,1.033-0.646,1.033h-42.646
			c-0.632,0-0.923-0.465-0.646-1.033l6.798-13.964c0.108-0.222,0.398-0.404,0.645-0.404h5.83c0.179,0,0.422,0.112,0.54,0.248
			c0.395,0.457,0.799,0.904,1.199,1.346c0.382,0.419,0.765,0.844,1.146,1.279h-6.916c-0.248,0-0.539,0.182-0.647,0.404l-4.503,9.251
			h35.756l-4.503-9.251c-0.108-0.223-0.398-0.404-0.646-0.404h-6.932c0.38-0.435,0.764-0.86,1.146-1.279
			c0.403-0.443,0.808-0.89,1.204-1.346c0.117-0.137,0.359-0.248,0.539-0.248h5.841C337.458,109.997,337.748,110.178,337.855,110.4z
			 M332.678,100.857c0,7.631-6.353,9.062-9.34,16.395c-0.242,0.596-1.081,0.592-1.324-0.003c-2.694-6.611-8.125-8.424-9.164-14.314
			c-1.023-5.798,2.991-11.477,8.853-12.031C327.664,90.338,332.678,95.013,332.678,100.857z M327.959,100.857
			c0-2.917-2.365-5.281-5.281-5.281c-2.917,0-5.282,2.365-5.282,5.281c0,2.917,2.364,5.281,5.282,5.281
			C325.594,106.138,327.959,103.774,327.959,100.857z"/>
		<rect x="30.46" y="156.994" fill="none" width="37.641" height="37.641"/>
		<rect x="30.46" y="156.994" fill="none" width="37.641" height="37.641"/>
		<path fill="#010101" d="M30.98,189.456l3.373,3.992c0,0,1.19,1.682,2.045,0.419c0.856-1.259,5.984-11.656,5.984-11.656
			s0.514-0.849,0.875,0.667c0.36,1.516,3.321,8.85,3.321,8.85s0.447,0.618,0.985,0.161c0.538-0.451,2.691-2.268,2.691-2.268
			s0.727-0.23-0.025-1.666c-0.755-1.441-3.518-7.992-3.518-7.992s-0.404-0.84,0.182-1.333c0.583-0.492,1.337-1.055,1.337-1.055
			s0.335-0.692,1.26,0.038c0.924,0.73,3.573,3.412,7.656,4.421c4.079,1.012,7.649,1.147,7.649,1.147s0.875,0.032,0.999-1.46
			c0.126-1.485,0.052-3.576,0.052-3.576s0.084-0.997-0.792-1.026c-0.872-0.031-2.355,0.302-4.224-0.273
			c-1.87-0.573-6.091-3.662-6.091-3.662s-0.68-0.532-0.051-1.064c0.628-0.53,5.026-4.239,5.026-4.239s0.753-0.563,0.299-1.102
			c-0.454-0.537-0.681-0.806-0.681-0.806l7.986-6.744l-1.518-1.795l-7.986,6.74l-0.657-0.592c0,0-0.583-0.507-1.076-0.09
			c-0.493,0.411-5.646,4.684-5.646,4.684s-1.452-1.536-2.527-0.627c-1.077,0.907-7.624,6.44-7.624,6.44s-0.286,0.393-0.061,1.202
			c0.222,0.812,0.632,1.386,0.229,1.728c-0.403,0.338-2.512,2.121-2.512,2.121s-0.589,0.574-0.515,1.666
			c0.075,1.088-0.527,2.285-1.693,3.271c-1.165,0.985-4.523,3.744-4.523,3.744S30.226,188.557,30.98,189.456z"/>
		<path fill="#010101" d="M61.211,162.006c0,0-2.673-3.168-3.143-3.721c-0.47-0.557-1.833-1.046-1.999,0.905
			c-0.187,2.245-0.396,5.266-0.396,5.266l2.333,0.078c0,0-0.114-1.238-0.283-1.86c-0.212-0.773,0.156-1.153,0.574-0.653
			c0.418,0.49,1.205,1.417,1.205,1.417L61.211,162.006z"/>
		<path fill="#010101" d="M46.777,181.011c0,0,0.742-0.624,1.333-1.125c0.593-0.5,1.166-1.62,0.672-3.106
			c-0.492-1.484,1.448,0.213,1.448,0.213s1.018,2.333-0.718,3.798c-1.743,1.474-2.513,2.058-2.513,2.058L46.777,181.011z"/>
	</g>
</g>
<g id="marques">
</g>
<g id="surveillance">
	<g id="prism">
		<circle cx="576.551" cy="335.261" r="145.695"/>
	</g>
	<circle cx="750.021" cy="236.558" r="27.775"/>
	<circle cx="750.021" cy="302.014" r="27.775"/>
	<circle cx="750.021" cy="370.491" r="27.775"/>
	<circle cx="750.021" cy="435.947" r="27.775"/>
	<g>
		<path fill="#FFFFFF" d="M762.369,427.979h-4.846c-0.254-4.954-3.295-8.93-7.127-9.367c-0.117-3.047-0.707-5.375-0.707-5.375
			s-0.588,2.329-0.705,5.375c-3.834,0.438-6.873,4.413-7.127,9.367h-4.846v1.881h25.357V427.979z"/>
		<rect x="737.877" y="430.425" fill="#FFFFFF" width="1.957" height="7.9"/>
		<rect x="743.145" y="430.425" fill="#FFFFFF" width="1.957" height="7.9"/>
		<rect x="753.98" y="430.425" fill="#FFFFFF" width="1.955" height="7.9"/>
		<rect x="759.246" y="430.425" fill="#FFFFFF" width="1.957" height="7.9"/>
		<rect x="748.713" y="430.425" fill="#FFFFFF" width="1.955" height="7.9"/>
		<rect x="732.893" y="441.504" fill="#FFFFFF" width="1.957" height="7.901"/>
		<rect x="738.16" y="441.504" fill="#FFFFFF" width="1.957" height="7.901"/>
		<rect x="748.994" y="441.504" fill="#FFFFFF" width="1.957" height="7.901"/>
		<polygon fill="#FFFFFF" points="762.369,439.003 737.012,439.003 732.408,439.003 732.408,440.884 766.813,440.884 
			766.813,439.003 		"/>
		<rect x="732.408" y="450.025" fill="#FFFFFF" width="34.404" height="1.881"/>
		<rect x="754.262" y="441.504" fill="#FFFFFF" width="1.955" height="7.901"/>
		<rect x="759.045" y="441.504" fill="#FFFFFF" width="1.957" height="7.901"/>
		<rect x="764.313" y="441.504" fill="#FFFFFF" width="1.955" height="7.901"/>
		<rect x="743.727" y="441.504" fill="#FFFFFF" width="1.957" height="7.901"/>
	</g>
	<g>
		<path fill="#FFFFFF" d="M744.486,295.736c0.914-0.468,1.66-0.976,2.256-1.453c0.127-0.103,0.25-0.206,0.367-0.308l-5.701-4.504
			l-0.93,3.85L744.486,295.736z"/>
		<path fill="#FFFFFF" d="M746.254,285.988l-0.693,2.072l-3.609,0.911l2.879,2.204l3.451-0.503l1.771-3.582l1.771,3.584l3.451,0.501
			l2.877-2.204l-3.609-0.911c0,0-2.455-7.688-3.723-7.688c-1.525,0-2.533,0-3.455,0c-1.391,0-1.008,1.654-3.08,1.654
			s-2.447,2.49-2.447,2.49s0.777,0,2.764,0S746.254,285.988,746.254,285.988z M747.264,281.61c0.248,0,0.445,0.199,0.445,0.445
			s-0.197,0.446-0.445,0.446c-0.246,0-0.447-0.2-0.447-0.446S747.018,281.61,747.264,281.61z"/>
		<path fill="#FFFFFF" d="M753.33,294.283c0.582,0.468,1.313,0.966,2.201,1.427l4.098-2.529l-0.926-3.71l-5.725,4.52
			C753.092,294.087,753.209,294.186,753.33,294.283z"/>
		<path fill="#FFFFFF" d="M759.324,289.071l0.881,3.76h6.873c2.82,0,4.26-3.76,4.26-3.76H759.324z"/>
		<path fill="#FFFFFF" d="M756.424,296.132c1.662,0.724,3.791,1.287,6.457,1.387c2.686-0.225,4.668-3.748,4.668-3.748h-7.49
			L756.424,296.132z"/>
		<path fill="#FFFFFF" d="M739.838,292.831l0.881-3.76h-12.014c0,0,1.439,3.76,4.26,3.76H739.838z"/>
		<path fill="#FFFFFF" d="M743.631,296.14l-3.646-2.369h-7.49c0,0,1.986,3.531,4.676,3.749
			C739.838,297.422,741.967,296.86,743.631,296.14z"/>
		<path fill="#FFFFFF" d="M750.021,291.553c0,0-3.141,6.837-13.703,6.837c0,24.635,7.66,19.968,13.703,28.054
			c6.043-8.086,13.703-3.419,13.703-28.054C753.162,298.39,750.021,291.553,750.021,291.553z M759.279,314.562
			c-1.279,2.712-2.963,3.859-5.094,5.311c-1.311,0.895-2.746,1.871-4.164,3.295c-1.418-1.424-2.854-2.401-4.164-3.295
			c-2.131-1.452-3.814-2.6-5.094-5.311c-1.404-2.973-2.152-7.604-2.279-14.117c6.008-0.518,9.59-3.141,11.537-5.246
			c1.947,2.105,5.529,4.729,11.537,5.246C761.432,306.958,760.684,311.589,759.279,314.562z"/>
		<path fill="#FFFFFF" d="M745.055,306.787c0.322,0,0.623,0.045,0.904,0.136c0.281,0.09,0.561,0.2,0.842,0.332l0.629-1.616
			c-0.748-0.357-1.533-0.536-2.354-0.536c-0.752,0-1.406,0.16-1.963,0.481c-0.557,0.32-0.982,0.778-1.279,1.374
			c-0.295,0.598-0.443,1.288-0.443,2.074c0,1.258,0.305,2.221,0.918,2.885c0.611,0.666,1.49,0.998,2.637,0.998
			c0.801,0,1.518-0.14,2.152-0.42v-1.736c-0.318,0.131-0.637,0.244-0.951,0.338s-0.641,0.141-0.977,0.141
			c-1.113,0-1.67-0.732-1.67-2.194c0-0.703,0.137-1.255,0.41-1.655C744.186,306.987,744.566,306.787,745.055,306.787z"/>
		<rect x="748.58" y="305.212" fill="#FFFFFF" width="2.063" height="7.6"/>
		<path fill="#FFFFFF" d="M754.105,311.388h2.469l0.373,1.424h2.246l-2.51-7.631h-2.74l-2.48,7.631h2.258L754.105,311.388z
			 M755.143,307.307c0.092-0.405,0.152-0.696,0.184-0.873c0.035,0.19,0.105,0.506,0.215,0.946c0.109,0.439,0.203,0.799,0.279,1.076
			l0.328,1.247h-1.617C754.846,308.511,755.049,307.712,755.143,307.307z"/>
	</g>
	<g>
		<path fill="#FFFFFF" d="M766.48,379.927v-5.854h-1.719v-5.168c-5.615-4.759-3.539-16.352-3.539-16.352l-1.861-0.794l0.396-1.647
			c-1.434-1.068-4.271-1.221-4.271-1.221l-2.197,6.59h-3.172h-0.244h-3.172l-2.197-6.59c0,0-2.838,0.152-4.271,1.221l0.396,1.647
			l-1.861,0.794c0,0,2.076,11.593-3.539,16.352v5.168h-1.719v5.854h1.719v3.094h-1.719v5.854h1.719v3.218h14.645h0.244h14.645
			v-3.218h1.719v-5.854h-1.719v-3.094H766.48L766.48,379.927z M762.191,385.978h-24.393v-11.7h24.393V385.978L762.191,385.978z"/>
		<polygon fill="#FFFFFF" points="743.811,381.03 746.387,381.03 746.387,379.167 743.811,379.167 743.811,377.526 746.605,377.526 
			746.605,375.661 741.523,375.661 741.523,384.26 743.811,384.26 		"/>
		<path fill="#FFFFFF" d="M753.76,383.586c0.586-0.448,0.879-1.063,0.879-1.844c0-0.524-0.119-0.952-0.359-1.282
			c-0.238-0.329-0.625-0.564-1.158-0.705v-0.06c0.404-0.098,0.729-0.317,0.977-0.658c0.246-0.341,0.369-0.753,0.369-1.235
			c0-0.732-0.283-1.273-0.848-1.62c-0.568-0.347-1.436-0.521-2.604-0.521h-3v8.598h3.348
			C752.373,384.26,753.172,384.035,753.76,383.586z M750.34,377.42h0.652c0.729,0,1.094,0.241,1.094,0.724
			c0,0.27-0.092,0.475-0.273,0.611s-0.439,0.205-0.773,0.205h-0.699V377.42z M750.34,382.466v-1.806h0.77
			c0.369,0,0.65,0.077,0.844,0.229s0.291,0.373,0.291,0.658c0,0.612-0.361,0.918-1.088,0.918H750.34L750.34,382.466z"/>
		<rect x="756.133" y="375.661" fill="#FFFFFF" width="2.334" height="8.599"/>
	</g>
	<g id="Calque_7">
		<path fill="#FFFFFF" d="M576.07,290.862c-24.577,0-45.879,14.311-56.348,35.217c10.469,20.904,31.771,35.217,56.348,35.217
			s45.879-14.313,56.348-35.217C621.95,305.173,600.647,290.862,576.07,290.862z M603.853,309.538
			c6.623,4.223,12.232,9.881,16.447,16.541c-4.215,6.66-9.825,12.316-16.447,16.541c-8.318,5.307-17.926,8.111-27.782,8.111
			s-19.464-2.805-27.783-8.111c-6.621-4.225-12.231-9.881-16.445-16.541c4.214-6.662,9.824-12.318,16.445-16.541
			c0.432-0.275,0.867-0.541,1.305-0.805c-1.096,3.01-1.695,6.254-1.695,9.641c0,15.561,12.614,28.176,28.174,28.176
			c15.559,0,28.174-12.615,28.174-28.176c0-3.387-0.601-6.631-1.695-9.641C602.986,308.995,603.422,309.263,603.853,309.538z
			 M576.07,314.853c0,5.836-4.73,10.566-10.564,10.566c-5.836,0-10.566-4.73-10.566-10.566c0-5.834,4.73-10.564,10.566-10.564
			C571.34,304.288,576.07,309.019,576.07,314.853z"/>
	</g>
	<g id="layer1_2_" transform="translate(1730.6534,-990.08839)" inkscape:label="Layer 1" inkscape:groupmode="layer">
		<g id="g2993_2_" transform="matrix(1.25,0,0,-1.25,-2124.9999,2719.8621)" inkscape:label="nsa_logo">
			<g id="g2995_2_" transform="matrix(0.23745598,0,0,0.23745598,240.56525,802.67618)">
				<g>
					<defs>
						<rect id="SVGID_1_" x="2812.921" y="1636.894" width="58.824" height="51.471"/>
					</defs>
					<clipPath id="SVGID_2_">
						<use xlink:href="#SVGID_1_"  overflow="visible"/>
					</clipPath>
					<g id="g2997_2_" clip-path="url(#SVGID_2_)">
						<g id="g3003_2_" transform="translate(1755.6659,1495.2692)">
							<path id="path3005_2_" inkscape:connector-curvature="0" fill="#FFFFFF" d="M1074.56,154.736h1.355
								c1.803-8.485,7.511-19.747,17.648-19.747c6.455,0,10.818,3.974,10.818,10.584c0,16.371-29.973,4.58-29.973,27.189
								c0,9.916,6.613,16.148,16.523,16.148c7.587,0,9.989-4.06,13.374-4.06c2.25,0,2.402,1.958,2.402,2.932h1.349v-16.895h-1.349
								c-1.879,7.959-6.083,16.674-15.546,16.674c-5.712,0-9.989-3.84-9.989-9.617c0-14.493,30.42-3.079,30.42-25.383
								c0-11.716-6.613-18.928-17.207-18.928c-6.528,0-12.687,3.902-15.694,3.902c-2.027,0-2.777-1.346-2.777-2.777h-1.355V154.736z
								"/>
						</g>
						<g id="g3007_2_" transform="translate(3231.2747,1446.7596)">
							<path id="path3009_2_" inkscape:connector-curvature="0" fill="#010101" d="M-327.937,200.85l-6.534,18.997h-0.155
								l-6.682-18.997H-327.937z M-353.922,183.87h0.974c2.849,0.224,4.205,2.023,5.106,4.507l17.424,48.219h1.132l20.122-52.727
								h3.678v-1.349h-22.379v1.349h6.008l-5.481,15.625h-14.569l-3.603-10.591c-0.227-0.602-0.53-1.431-0.53-2.254
								c0-2.477,2.099-2.78,3.606-2.78h2.106v-1.349h-13.595V183.87z"/>
							<path id="path3068_2_" inkscape:connector-curvature="0" fill="#FFFFFF" d="M-327.937,200.85l-6.534,18.997h-0.155
								l-6.682-18.997H-327.937z M-353.922,183.87h0.974c2.849,0.224,4.205,2.023,5.106,4.507l17.424,48.219h1.132l20.122-52.727
								h3.678v-1.349h-22.379v1.349h6.008l-5.481,15.625h-14.569l-3.603-10.591c-0.227-0.602-0.53-1.431-0.53-2.254
								c0-2.477,2.099-2.78,3.606-2.78h2.106v-1.349h-13.595V183.87z"/>
						</g>
						<g id="g3011_2_" transform="translate(1262.0942,1154.0486)">
							<path id="path3013_2_" inkscape:connector-curvature="0" fill="#FFFFFF" d="M1543.68,479.052v-3.82h-46.897v3.82h3.797v1.596
								c0,0.586,0.477,1.056,1.063,1.056h0.714v1.329c0,0.536,0.441,0.977,0.98,0.977h7.85c0.737,3.803,3.817,6.768,7.666,7.34
								v34.243c0.517-0.306,1.102-0.507,1.724-0.566l1.152-1.395v-32.302c3.793-0.619,6.814-3.563,7.547-7.32h7.85
								c0.54,0,0.98-0.441,0.98-0.977v-1.329h0.707c0.589,0,1.066-0.47,1.066-1.056v-1.596H1543.68z"/>
						</g>
						<g id="g3015_2_" transform="translate(1378.6353,1538.4823)">
							<path id="path3017_2_" inkscape:connector-curvature="0" fill="#FFFFFF" d="M1432.916,113.668v-2.28
								c-1.119-0.431-2.004-1.339-2.415-2.471l-26.104,31.651c0.016,0,0.033,0,0.052,0c0.056,0,0.119,0.007,0.178,0.007
								c0.02,0,0.04,0,0.056,0c0.03,0,0.059,0.003,0.082,0.007c0.069,0.007,0.142,0.013,0.211,0.02
								c0.026,0.01,0.052,0.01,0.085,0.016c0.033,0,0.059,0.01,0.099,0.016c0.099,0.01,0.198,0.039,0.303,0.059
								c0.013,0.007,0.03,0.01,0.04,0.016c0.03,0.003,0.056,0.007,0.082,0.013c0.03,0.013,0.063,0.026,0.095,0.036
								c0.043,0.013,0.082,0.023,0.125,0.036c0.02,0.013,0.046,0.02,0.066,0.026c0.178,0.066,0.355,0.145,0.52,0.23
								c0.033,0.02,0.066,0.036,0.099,0.056c0.072,0.043,0.145,0.082,0.214,0.132c0.036,0.02,0.063,0.039,0.095,0.063
								c0.073,0.056,0.145,0.102,0.211,0.155c0.026,0.023,0.049,0.039,0.079,0.063c0.023,0.023,0.053,0.039,0.079,0.069
								c0.03,0.026,0.059,0.049,0.092,0.079c0.066,0.063,0.128,0.122,0.198,0.194c0.013,0.02,0.033,0.036,0.052,0.059
								c0.007,0.003,0.01,0.013,0.02,0.023c0.02,0.02,0.036,0.043,0.059,0.059c0.039,0.056,0.085,0.109,0.125,0.161
								c0.016,0.016,0.026,0.036,0.046,0.053c0,0.003,0.007,0.01,0.007,0.013c0.02,0.03,0.043,0.059,0.066,0.095
								c0.016,0.013,0.03,0.033,0.046,0.059c0.026,0.039,0.052,0.079,0.079,0.118c0.026,0.043,0.046,0.079,0.073,0.122
								c0.023,0.036,0.046,0.079,0.069,0.118c0.016,0.033,0.03,0.059,0.043,0.092c0.066,0.118,0.125,0.243,0.174,0.375
								c0.01,0.03,0.023,0.056,0.03,0.089c0.02,0.03,0.026,0.066,0.04,0.102L1432.916,113.668z"/>
						</g>
						<g id="g3019_2_" transform="translate(1441.9156,2199.4536)">
							<path id="path3021_2_" inkscape:connector-curvature="0" fill="#FFFFFF" d="M1372.768-514.554v-35.082
								c-0.033,0.016-0.059,0.03-0.092,0.039c-0.066,0.023-0.128,0.049-0.197,0.076c-0.026,0.01-0.066,0.02-0.095,0.026
								c-0.033,0.013-0.069,0.023-0.095,0.033c-0.069,0.02-0.138,0.039-0.204,0.053c-0.069,0.013-0.138,0.03-0.204,0.039
								c0,0.003-0.007,0.003-0.013,0.003c-0.066,0.016-0.128,0.023-0.194,0.033c-0.178,0.023-0.355,0.036-0.536,0.036
								c-0.036,0-0.072,0-0.108,0c-0.03,0-0.056-0.007-0.089-0.01c-0.033,0-0.073,0-0.112-0.003c-0.007,0-0.01,0-0.02-0.003
								c-0.046,0-0.092-0.013-0.138-0.013c-0.066-0.007-0.132-0.016-0.198-0.023c-0.033-0.013-0.069-0.016-0.099-0.02
								c-0.013-0.003-0.026-0.01-0.04-0.01c-0.052-0.007-0.092-0.016-0.135-0.026c-0.04-0.007-0.076-0.016-0.115-0.033
								c-0.023-0.003-0.049-0.01-0.072-0.02c-0.04-0.01-0.073-0.02-0.109-0.026v35.085c0.457-0.286,0.997-0.448,1.576-0.448
								C1371.939-514.847,1372.38-514.742,1372.768-514.554"/>
						</g>
						<g id="g3023_2_" transform="translate(1755.889,2304.6172)">
							<path id="path3025_2_" inkscape:connector-curvature="0" fill="#FFFFFF" d="M1074.35-614.509
								c-0.085-1.03-0.29-1.925-0.52-2.385l-0.007-0.095l-0.046-0.533l-1.586,0.128l0.263,3.221l1.605,0.767v0.007l0.329,0.158
								C1074.399-613.628,1074.39-614.059,1074.35-614.509"/>
						</g>
						<g id="g3027_2_" transform="translate(1705.4827,2229.1846)">
							<path id="path3029_2_" inkscape:connector-curvature="0" fill="#FFFFFF" d="M1122.256-542.811l-24.044,1.971l-3.823,3.379
								l0.448,5.455l34.75-2.859l-0.03-0.372l-6.949-3.33L1122.256-542.811z"/>
						</g>
						<g id="g3031_2_" transform="translate(1471.41,2254.5039)">
							<path id="path3033_2_" inkscape:connector-curvature="0" fill="#FFFFFF" d="M1344.734-566.88c0-1.517-1.23-2.75-2.75-2.75
								s-2.754,1.234-2.754,2.75c0,1.52,1.234,2.75,2.754,2.75S1344.734-565.36,1344.734-566.88"/>
						</g>
						<g id="g3035_2_" transform="translate(1487.436,1414.392)">
							<path id="path3037_2_" inkscape:connector-curvature="0" fill="#FFFFFF" d="M1329.504,231.609
								c0-2.148-1.744-3.892-3.889-3.892c-2.148,0-3.889,1.744-3.889,3.892c0,2.145,1.74,3.889,3.889,3.889
								C1327.761,235.498,1329.504,233.754,1329.504,231.609"/>
						</g>
						<g id="g3039_2_" transform="translate(882.5728,2165.3374)">
							<path id="path3041_2_" inkscape:connector-curvature="0" fill="#FFFFFF" d="M1904.395-482.135
								c0-2.142-1.737-3.886-3.882-3.886c-2.152,0-3.889,1.744-3.889,3.886c0,2.148,1.737,3.892,3.889,3.892
								C1902.658-478.243,1904.395-479.987,1904.395-482.135"/>
						</g>
					</g>
				</g>
			</g>
		</g>
	</g>
</g>
<g id="outils">
	<circle fill="#F15A29" cx="231.391" cy="414.867" r="27.775"/>
	<circle fill="#F15A29" cx="297.815" cy="414.866" r="27.775"/>
	<circle fill="#F15A29" cx="361.148" cy="414.866" r="27.774"/>
	<circle fill="#F15A29" cx="232.936" cy="480.404" r="27.775"/>
	<circle fill="#F15A29" cx="299.36" cy="480.404" r="27.775"/>
	<circle fill="#F15A29" cx="362.693" cy="480.404" r="27.774"/>
	<circle fill="#F15A29" cx="234.481" cy="542.068" r="27.775"/>
	<circle fill="#F15A29" cx="300.905" cy="542.067" r="27.775"/>
	<circle fill="#F15A29" cx="364.238" cy="542.067" r="27.774"/>
	<path d="M374.866,417.038c0.094-0.686,0.146-1.382,0.146-2.091c0-8.51-6.936-15.408-15.49-15.408c-0.85,0-1.682,0.07-2.494,0.203
		c-1.453-0.947-3.186-1.5-5.047-1.5c-5.107,0-9.242,4.138-9.242,9.244c0,1.857,0.547,3.583,1.488,5.032
		c-0.127,0.792-0.193,1.603-0.193,2.429c0,8.51,6.934,15.408,15.488,15.408c0.967,0,1.906-0.094,2.82-0.259
		c1.42,0.88,3.092,1.394,4.885,1.394c5.105,0,9.242-4.14,9.242-9.244C376.469,420.316,375.879,418.522,374.866,417.038z
		 M360.971,426.303c-4.922,0.257-7.225-0.832-9.336-2.813c-2.355-2.211-1.41-4.734,0.51-4.862s3.07,2.175,4.096,2.815
		c1.021,0.639,4.914,2.093,6.971-0.258c2.238-2.558-1.49-3.881-4.221-4.282c-3.902-0.577-8.826-2.687-8.443-6.845
		c0.385-4.156,3.531-6.287,6.844-6.587c4.221-0.384,6.969,0.64,9.143,2.494c2.514,2.144,1.154,4.538-0.449,4.731
		c-1.594,0.191-3.387-3.525-6.902-3.58c-3.625-0.058-6.076,3.771-1.6,4.86c4.477,1.087,9.271,1.534,10.998,5.628
		C370.309,421.699,365.897,426.046,360.971,426.303z"/>
	<path d="M297.814,397.825c9.449,0,17.108,7.659,17.108,17.108c0,8.724-6.53,15.922-14.97,16.975V419.21h5.881l0.535-4.276h-6.416
		v-2.139c0-1.182,0.957-2.139,2.139-2.139h4.277v-4.277h-4.277c-3.543,0-6.416,2.873-6.416,6.416v2.139h-3.207v4.276h3.207v8.454
		v3.838v0.406c-8.439-1.053-14.969-8.251-14.969-16.975C280.706,405.484,288.367,397.825,297.814,397.825z"/>
	<path d="M308.326,481.611c-0.049-4.877,3.976-7.215,4.157-7.332c-2.264-3.309-5.786-3.764-7.042-3.814
		c-2.998-0.305-5.852,1.764-7.373,1.764c-1.518,0-3.865-1.719-6.354-1.674c-3.268,0.049-6.281,1.9-7.963,4.826
		c-3.396,5.893-0.871,14.623,2.439,19.4c1.617,2.34,3.545,4.967,6.076,4.873c2.439-0.098,3.361-1.576,6.309-1.576
		s3.777,1.576,6.357,1.527c2.623-0.049,4.286-2.383,5.892-4.73c1.857-2.713,2.621-5.34,2.668-5.475
		C313.434,489.373,308.376,487.436,308.326,481.611z M303.476,467.301c1.344-1.631,2.252-3.893,2.004-6.148
		c-1.936,0.078-4.281,1.289-5.672,2.916c-1.246,1.441-2.336,3.746-2.043,5.957C299.925,470.193,302.132,468.928,303.476,467.301z"/>
	<path d="M244.936,466.936h-22.449c-3.704,0-6.734,3.031-6.734,6.734v13.469c0,3.705,3.03,6.734,6.734,6.734h22.449
		c3.704,0,6.734-3.029,6.734-6.734V473.67C251.67,469.967,248.64,466.936,244.936,466.936z M229.222,489.385v-17.959l11.225,8.979
		L229.222,489.385z"/>
	<path d="M355.428,477.748l-4.012-6.949c2.568-3.217,6.523-5.279,10.959-5.279c5.133,0,9.619,2.76,12.063,6.873h-11.439
		c-0.205-0.018-0.412-0.027-0.623-0.027C359.037,472.365,356.225,474.656,355.428,477.748z M367.395,474.42h8.035
		c0.623,1.586,0.965,3.313,0.965,5.121c0,7.689-6.191,13.932-13.859,14.018l5.732-9.932c0.809-1.16,1.281-2.568,1.281-4.086
		C369.549,477.537,368.723,475.723,367.395,474.42z M357.282,479.541c0-2.809,2.285-5.094,5.094-5.094s5.094,2.285,5.094,5.094
		s-2.285,5.092-5.094,5.092S357.282,482.35,357.282,479.541z M364.297,486.453l-4.014,6.951c-6.75-1.01-11.928-6.832-11.928-13.863
		c0-2.498,0.652-4.844,1.799-6.875l5.723,9.914c1.146,2.441,3.629,4.135,6.498,4.135
		C363.041,486.715,363.686,486.623,364.297,486.453z"/>
	<path d="M295.474,542.065c-1.857-0.955-3.664-1.441-5.371-1.441c-0.232,0-0.465,0.008-0.699,0.029
		c-2.176,0.18-4.164,0.754-5.443,1.199c-0.34,0.125-0.686,0.258-1.045,0.402l-3.498,12.129c2.402-0.889,4.529-1.322,6.477-1.322
		c3.148,0,5.434,1.178,7.322,2.389c0.895-3.035,3.039-10.365,3.68-12.555C296.431,542.609,295.958,542.326,295.474,542.065z
		 M299.997,545.147l-3.523,12.236c1.045,0.6,4.561,2.496,7.252,2.496c2.174,0,4.607-0.559,7.435-1.707l3.363-11.762
		c-2.283,0.736-4.475,1.111-6.522,1.111C304.263,547.522,301.648,546.309,299.997,545.147z M290.824,536.488
		c3.004,0.031,5.225,1.178,7.066,2.357l3.611-12.361c-0.76-0.436-2.758-1.523-4.201-1.893c-0.949-0.223-1.947-0.336-3.006-0.336
		c-2.018,0.037-4.223,0.543-6.734,1.551l-3.445,12.098c2.523-0.953,4.699-1.416,6.703-1.416
		C290.82,536.488,290.824,536.488,290.824,536.488z M319.303,529.842c-2.291,0.889-4.527,1.342-6.662,1.342
		c-3.57,0-6.204-1.238-7.911-2.43l-3.58,12.396c2.404,1.547,4.996,2.332,7.717,2.332c2.218,0,4.517-0.533,6.835-1.586l-0.008-0.086
		l0.145-0.035L319.303,529.842z"/>
	<g>
		<path d="M221.703,557.662c1.357,0.387,3.063-0.596,4.229-1.109c3.241-1.434,6.519-5.982,10.19-3.723
			c1.552,0.957,2.731,2.523,3.732,4c0.234,0.346,0.578,0.758,1.027,0.721c0.125-0.012,0.243-0.027,0.354-0.047
			c0.195-0.035,0.368-0.047,0.393-0.008c0.022,0.041,0.098,0.018,0.167-0.053c0.068-0.07,0.64-0.33,1.18-0.734
			c0.298-0.223,0.602-0.48,0.953-0.766c1.204-0.975,2.067-1.225,1.612-2.924c-0.732-2.729-4.715-5.1-6.937-6.375
			c-2.905-2.057,1.718-1.627,3.179-1.982c1.271-0.309,4.129-1.299,4.7-2.643c0.532-1.252-0.799-2.639-1.461-3.682
			c-0.498-0.787-3.318-0.242-4.969,0.195c-0.685,0.18-1.783,0.277-2.326-0.176c-0.475-0.396-0.885-0.891-1.444-1.156
			c-0.618-0.295-1.236-0.59-1.854-0.887c-1.202-0.578-2.011-0.959-3.321-0.469c-1.74,0.65-2.679,2.816-3.305,4.377
			c-0.52,1.293-0.742,2.799-0.834,4.18c-0.155,2.313-0.522,3.57-2.02,5.424c-1.212,1.5-2.816,1.771-4.426,2.578
			c-0.876,0.441-0.939,0.303-1.233,1.115C219.044,554.192,220.893,557.434,221.703,557.662z M220.903,554.141
			c-0.044-0.096-0.088-0.191-0.131-0.289c-0.027-0.064-0.047-0.125-0.06-0.184c-0.022-0.104,0.243-0.424,0.561-0.711
			c0.318-0.287,0.771-0.598,1.013-0.684c0.179-0.064,0.334-0.119,0.437-0.166c1.582-0.725,2.76-1.617,3.859-2.977
			c1.083-1.34,1.521-2.467,1.56-4.109c0.001-0.09,0.007-0.199,0.016-0.324c0.012-0.18,0.348-0.627,0.745-0.996
			c0.396-0.373,0.729-0.744,0.742-0.83s-0.306,0.174-0.71,0.578c-0.404,0.406-0.676,0.162-0.564-0.535
			c0.006-0.031,0.011-0.063,0.016-0.096c0.114-0.697,0.637-1.668,1.13-2.176c0.03-0.031,0.06-0.061,0.089-0.092
			c0.492-0.506,1.007-1.209,1.174-1.557c0.166-0.35-0.042-0.271-0.494,0.16c-0.252,0.24-0.522,0.5-0.814,0.779
			c-0.101,0.1-0.199,0.197-0.297,0.295c-0.164,0.164-0.157-0.26,0.082-0.926c0.724-2.023,1.848-3.592,3.501-2.797
			c2.372,1.139,4.103,3.018,6.816,3.135c0.938,0.039,2.19-0.254,3.009-0.68c1.302-0.678,1.914,0.852,2.345,1.563
			c0.83,1.375,1.203,1.479-1.671,3.07c-0.223,0.123-10.291,0.318-5.813,3.486c2.54,1.459,4.709,3.197,6.437,5.594
			c1.351,1.869-0.375,2.768-1.617,3.773c-0.005,0.004-0.012,0.006-0.018,0.008c-0.01,0.004-0.051-0.039-0.093-0.098
			c-0.04-0.059-0.139-0.041-0.219,0.039c-0.081,0.08-0.368,0.094-0.604-0.047c-0.236-0.143-0.274-0.426-0.111-0.592
			c0.162-0.166,0.232-0.381,0.154-0.479c-0.078-0.1-0.29-0.031-0.47,0.146c-0.123,0.123-0.423,0.041-0.749-0.188
			c0.086,0.035,0.254-0.041,0.414-0.201c0.186-0.186,0.281-0.4,0.209-0.477c-0.073-0.076-0.277,0.006-0.456,0.184
			c-0.172,0.172-0.261,0.375-0.208,0.465c-0.141-0.104-0.283-0.23-0.419-0.385c-0.266-0.301-0.521-0.605-0.757-0.883
			c-0.456-0.539-0.762-1.047-0.645-1.166c0.118-0.117,0.163-0.248,0.101-0.287c-0.064-0.037-0.204,0.021-0.314,0.135
			c-0.109,0.111-0.481-0.039-0.854-0.305c-0.373-0.266-0.641-0.508-0.575-0.576c0.066-0.068-0.067-0.207-0.303-0.299
			c-0.142-0.057-0.285-0.109-0.431-0.158c-0.021-0.008-0.044-0.014-0.067-0.02c-0.039-0.008-0.104,0.021-0.146,0.064
			c-0.042,0.043-0.513-0.133-1.086-0.27c-0.359-0.088-0.716-0.127-1.059-0.107c-1.999,0.119-6.156,4.824-9.085,5.93
			c-0.661,0.25-1.205,0.18-1.149,0.123c0.056-0.055,0.022-0.248-0.069-0.434c-0.06-0.119-0.115-0.232-0.164-0.338
			c0,0-0.029-0.057-0.063-0.129c-0.036-0.072-0.229,0.021-0.432,0.209c-0.203,0.188-0.483,0.227-0.597,0.063
			c-0.065-0.092-0.126-0.195-0.183-0.311c-0.093-0.186-0.185-0.371-0.273-0.557c-0.15-0.311-0.084-0.748,0.142-0.979
			s0.4-0.438,0.388-0.465c-0.007-0.014-0.014-0.031-0.021-0.045c-0.024-0.059-0.05-0.121-0.077-0.186
			c-0.043-0.102-0.269-0.01-0.507,0.205C221.226,554.252,220.975,554.299,220.903,554.141z"/>
		<path d="M235.766,534.785c0.68,0.193,1.304,0.236,1.361,0.236c0.03,0.002,0.065,0,0.105-0.002c2.348-0.125,4.573-1.053,5.534-3.33
			c1.306-3.096-2.386-5.166-4.876-5.299c-2.376-0.125-4.656,1.201-5.581,3.383C231.238,532.297,233.546,534.151,235.766,534.785z
			 M235.11,528.715c-0.237,0.217-0.473,0.432-0.705,0.646c-0.521,0.479-0.907,0.275-0.583-0.354
			c0.265-0.516,0.679-1.016,1.267-1.479c0.309-0.244,0.638-0.418,0.979-0.531c0.585-0.197,0.85,0.059,0.542,0.34
			c-0.307,0.281-0.268,0.238,0.149-0.004c0.245-0.145,0.509-0.266,0.791-0.365c0.007-0.002,0.016-0.006,0.022-0.008
			c0.013-0.004,0.043-0.025,0.066-0.051c0.024-0.025,0.622,0.027,1.269,0.314c1.019,0.453,1.909,1.242,2.42,2.105
			c1.201,2.031-0.293,4.113-2.258,4.861c-0.661,0.252-1.419,0.27-1.631,0.238c-0.213-0.029-0.369-0.08-0.353-0.096
			c0.011-0.01,0.021-0.018,0.03-0.027c0.008-0.006,0.014-0.014,0.021-0.02c0.011-0.012-0.029-0.043-0.09-0.07
			c-0.06-0.027-0.137-0.02-0.173,0.018s-0.258,0.02-0.488-0.059c-0.229-0.078-0.346-0.225-0.269-0.303
			c0.076-0.08,0.094-0.176,0.036-0.215c-0.058-0.037-0.18-0.012-0.27,0.07c-0.092,0.084-0.572-0.049-1-0.404
			c-0.429-0.355-0.549-0.889-0.368-1.092c0.181-0.201,0.248-0.572,0.197-0.838c-0.053-0.266-0.264-0.277-0.516-0.018
			c-0.253,0.26-0.526,0.318-0.586,0.125c-0.061-0.193,0.187-0.641,0.527-0.992c0.342-0.352,0.659-0.803,0.734-0.998
			c0.045-0.117,0.096-0.232,0.155-0.346c0.131-0.25,0.281-0.484,0.452-0.705C235.766,528.096,235.63,528.236,235.11,528.715z"/>
		<path d="M223.725,552.205c0.215-0.076,0.789-0.555,1.285-1.057c1.048-1.064,2.105-2.135,3.17-3.213
			c0.497-0.504,0.677-0.707,0.402-0.453c-0.163,0.15-0.329,0.301-0.499,0.457c-1.269,1.176-2.537,2.354-3.809,3.529
			C223.755,551.949,223.51,552.279,223.725,552.205z"/>
		<path d="M228.715,546.17c0.387-0.354,0.706-0.904,0.722-1.229c0.017-0.322-0.265-0.303-0.64,0.045
			c-0.375,0.35-0.683,0.729-0.688,0.848c-0.003,0.072-0.007,0.145-0.007,0.217c0.009,0.092,0.015,0.186,0.019,0.279
			c0.005,0.154-0.021,0.326-0.05,0.381C228.04,546.768,228.329,546.524,228.715,546.17z"/>
		<path d="M239.832,554.199c0.172-0.17,0.2-0.416,0.058-0.545c-0.143-0.127-0.391-0.102-0.553,0.055
			c-0.161,0.156-0.182,0.395-0.05,0.537S239.662,554.369,239.832,554.199z"/>
	</g>
	<path d="M375.184,547.373l-0.615-17.246c-0.027-0.73,0.549-1.326,1.279-1.326h5.307c0.729,0,1.221,0.588,1.092,1.307l-3.082,17.266
		 M379.828,553.012c0,1.277-1.047,2.322-2.324,2.322h-0.662c-1.275,0-2.322-1.045-2.322-2.322v-0.662
		c0-1.277,1.047-2.322,2.322-2.322h0.662c1.277,0,2.324,1.045,2.324,2.322V553.012z M355.948,528.801
		c-8.793,0-15.92,5.939-15.92,13.266c0,7.328,7.127,13.268,15.92,13.268c8.791,0,15.92-5.939,15.92-13.268
		C371.868,534.74,364.739,528.801,355.948,528.801z M366.561,539.414h-3.078l-4.883,4.881v3.078h3.98v2.654h-10.613v-2.654h3.98
		v-3.078l-7.535-7.535h-1.744v-2.652h7.945v2.652h-1.744l4.404,4.406l1.326-1.326v-3.08h7.961V539.414z"/>
	<path d="M248.066,416.685c0-6.831,0.668-12.45-12.371-12.45h-8.66c-13.041,0-12.371,5.619-12.371,12.45s-0.928,12.45,12.371,12.45
		h8.66C249.818,429.135,248.066,423.516,248.066,416.685z M228.603,428.449c-0.703,0-1.271-0.571-1.271-1.273
		c0-0.705,0.568-1.273,1.271-1.273s1.273,0.568,1.273,1.273C229.876,427.878,229.306,428.449,228.603,428.449z M231.392,428.449
		c-0.703,0-1.273-0.571-1.273-1.273c0-0.705,0.57-1.273,1.273-1.273s1.273,0.568,1.273,1.273
		C232.665,427.878,232.095,428.449,231.392,428.449z M234.181,428.449c-0.703,0-1.273-0.571-1.273-1.273
		c0-0.705,0.57-1.273,1.273-1.273s1.273,0.568,1.273,1.273C235.454,427.878,234.884,428.449,234.181,428.449z M234.404,425.362
		h-6.063c-9.309,0-8.66-3.896-8.66-8.678s-0.469-8.678,8.66-8.678h6.063c9.129,0,8.66,3.896,8.66,8.678
		S244.29,425.362,234.404,425.362z"/>
	<g>
		<path d="M229.681,400.8c-0.318-0.308-0.604-0.659-0.898-0.983c-1.002-1.109-1.961-2.267-3.006-3.336
			c-0.234-0.238-0.518-0.625-0.861-0.688c0.057,0.578,0.646,1.152,0.98,1.59c0.916,1.205,1.879,2.373,2.85,3.535
			c0.533,0.64,0.553,1.281,0.398,1.725c-0.152,0.441,0.578,0.837,1.412,0.837h1.393c0.834,0,1.564-0.395,1.41-0.837
			c-0.154-0.443-0.131-1.082,0.408-1.716c1.51-1.774,4.186-4.993,3.801-5.034c-0.275-0.028-0.813,0.639-0.965,0.797
			c-0.596,0.627-1.135,1.307-1.732,1.934c-0.609,0.643-1.207,1.277-1.771,1.958c-0.506,0.607-1.037,1.144-1.891,1.036
			C230.583,401.535,230.105,401.207,229.681,400.8z"/>
		<circle cx="224.361" cy="395.176" r="0.611"/>
		<circle cx="237.943" cy="395.176" r="0.611"/>
	</g>
	<circle fill="#F15A29" cx="119.017" cy="479.539" r="73.587"/>
	<path fill="#010101" d="M86.913,436.41H68.044c-2.225,0-4.043,1.818-4.043,4.043v35.043c0,2.223,1.818,4.043,4.043,4.043h18.869
		c2.224,0,4.044-1.82,4.044-4.043v-35.043C90.957,438.229,89.137,436.41,86.913,436.41z M72.087,438.432h10.782v1.348H72.087
		V438.432z M77.478,476.844c-1.489,0-2.696-1.207-2.696-2.695s1.207-2.695,2.696-2.695c1.488,0,2.695,1.207,2.695,2.695
		S78.967,476.844,77.478,476.844z M88.261,468.756H66.696v-26.955h21.564V468.756z"/>
	<g>
		<path fill="#010101" d="M176.287,473.68c-0.065-0.074-0.161-0.119-0.261-0.119H108.94c-0.1,0-0.193,0.045-0.26,0.119
			c-0.064,0.076-0.094,0.178-0.08,0.275c0.01,0.064,1.021,6.275,8.875,6.275h50.016c7.854,0,8.865-6.211,8.876-6.275
			C176.382,473.858,176.352,473.756,176.287,473.68z M147.529,478.055h-10.091v-2.318h10.091V478.055z"/>
		<path fill="#010101" d="M115.909,471.147h53.148c0.768,0,1.392-0.623,1.392-1.393v-32.643c0-0.77-0.624-1.393-1.392-1.393h-53.148
			c-0.768,0-1.392,0.623-1.392,1.393v32.643C114.517,470.524,115.141,471.147,115.909,471.147z M119.39,440.59h46.188v25.684H119.39
			V440.59z"/>
	</g>
	<g>
		<path fill="#010101" d="M119.3,498.74c8.664,0.084,14.09-0.455,14.822,9.146h10.564c0-14.875-12.973-16.879-25.662-16.879
			s-25.662,2.004-25.662,16.879h10.482C104.655,498.102,110.709,498.654,119.3,498.74z"/>
		<path fill="#010101" d="M98.601,512.668c2.573,0,4.714,0.154,5.19-2.377c0.064-0.344,0.101-0.732,0.101-1.184h-0.122H93.31
			C93.31,512.873,95.68,512.668,98.601,512.668z"/>
		<path fill="#010101" d="M134.19,509.108h-0.098c0,0.453,0.039,0.844,0.111,1.184c0.502,2.334,2.641,2.189,5.203,2.189
			c2.938,0,5.316,0.193,5.316-3.373H134.19z"/>
		<path fill="#010101" d="M129.03,506.543v-1.496c0-0.67-0.771-0.711-1.723-0.711h-1.555c-0.951,0-1.723,0.041-1.723,0.711v1.289v1
			h-11v-1v-1.289c0-0.67-0.771-0.711-1.723-0.711h-1.556c-0.951,0-1.722,0.041-1.722,0.711v1.496v1.307
			c-2.506,2.604-10.707,13.688-11.004,15.031l0.004,8.955c0,0.826,0.672,1.5,1.5,1.5h40c0.826,0,1.5-0.674,1.5-1.5v-9
			c-0.295-1.303-8.494-12.383-11-14.986V506.543z M112.487,524.086c-0.805,0-1.457-0.652-1.457-1.459
			c0-0.805,0.652-1.457,1.457-1.457c0.806,0,1.459,0.652,1.459,1.457C113.946,523.434,113.293,524.086,112.487,524.086z
			 M112.487,519.086c-0.805,0-1.457-0.652-1.457-1.459c0-0.805,0.652-1.457,1.457-1.457c0.806,0,1.459,0.652,1.459,1.457
			C113.946,518.434,113.293,519.086,112.487,519.086z M112.487,514.086c-0.805,0-1.457-0.652-1.457-1.459
			c0-0.805,0.652-1.457,1.457-1.457c0.806,0,1.459,0.652,1.459,1.457C113.946,513.434,113.293,514.086,112.487,514.086z
			 M118.487,524.086c-0.805,0-1.457-0.652-1.457-1.459c0-0.805,0.652-1.457,1.457-1.457c0.807,0,1.459,0.652,1.459,1.457
			C119.946,523.434,119.294,524.086,118.487,524.086z M118.487,519.086c-0.805,0-1.457-0.652-1.457-1.459
			c0-0.805,0.652-1.457,1.457-1.457c0.807,0,1.459,0.652,1.459,1.457C119.946,518.434,119.294,519.086,118.487,519.086z
			 M118.487,514.086c-0.805,0-1.457-0.652-1.457-1.459c0-0.805,0.652-1.457,1.457-1.457c0.807,0,1.459,0.652,1.459,1.457
			C119.946,513.434,119.294,514.086,118.487,514.086z M124.487,524.086c-0.805,0-1.457-0.652-1.457-1.459
			c0-0.805,0.652-1.457,1.457-1.457c0.807,0,1.459,0.652,1.459,1.457C125.946,523.434,125.294,524.086,124.487,524.086z
			 M124.487,519.086c-0.805,0-1.457-0.652-1.457-1.459c0-0.805,0.652-1.457,1.457-1.457c0.807,0,1.459,0.652,1.459,1.457
			C125.946,518.434,125.294,519.086,124.487,519.086z M124.487,514.086c-0.805,0-1.457-0.652-1.457-1.459
			c0-0.805,0.652-1.457,1.457-1.457c0.807,0,1.459,0.652,1.459,1.457C125.946,513.434,125.294,514.086,124.487,514.086z"/>
	</g>
	<g>
		<g>
			<path fill="#F15A29" d="M140.5,420c-0.553-17.319,7.364-33.168,25.345-36.881c17.082-3.528,34.488,6.404,43.996,20.143
				c1.821,2.632,6.158,0.136,4.317-2.523c-10.925-15.786-29.378-25.627-48.752-22.602c-20.631,3.222-30.524,22.506-29.906,41.863
				C135.602,423.216,140.603,423.226,140.5,420L140.5,420z"/>
		</g>
	</g>
	<g>
		<g>
			<path fill="#F15A29" d="M184.841,476.262c5.08,9.563,15.53,18.012,26.823,14.149c3.033-1.038,1.73-5.868-1.329-4.822
				c-9.184,3.142-17.133-4.237-21.177-11.851C187.645,470.89,183.329,473.416,184.841,476.262L184.841,476.262z"/>
		</g>
	</g>
	<g>
		<g>
			<path fill="#F15A29" d="M161.841,527.262c5.452,10.445,9.74,21.43,14.688,32.112c4.566,9.856,9.969,20.76,18.58,27.714
				c16.804,13.57,29.323-10.017,33.301-23.423c0.919-3.1-3.906-4.413-4.821-1.33c-2.261,7.619-5.391,15.404-11.377,20.872
				c-7.938,7.25-16.301-1.238-20.984-7.767c-11.013-15.354-16.388-34.068-25.069-50.702
				C164.666,521.879,160.351,524.407,161.841,527.262L161.841,527.262z"/>
		</g>
	</g>
	<g>
		<g>
			<path fill="#F15A29" d="M215,585.5c7.188,0.152,13.159,3.052,19.624,5.83c6.111,2.625,12.058,3.586,18.647,2.441
				c16.452-2.86,31.399-16.068,38.888-30.51c1.482-2.857-2.833-5.387-4.317-2.523c-7.353,14.179-22.57,27.371-39.104,28.607
				c-5.882,0.439-11.27-2.166-16.481-4.51c-5.559-2.499-11.122-4.205-17.256-4.336C211.774,580.432,211.78,585.432,215,585.5
				L215,585.5z"/>
		</g>
	</g>
	<g>
		<g>
			<path fill="#F15A29" d="M279.335,579.411c8.178,2.081,14.398,7.325,21.462,11.617c7.967,4.84,16.437,5.979,25.609,5.38
				c8.205-0.536,15.946-3.258,22.111-8.766c6.308-5.635,9.621-14.05,11.893-21.978c0.89-3.106-3.935-4.424-4.821-1.33
				c-2.207,7.7-5.327,15.056-11.408,20.487c-6.398,5.716-15.631,6.826-23.846,6.856c-15.582,0.057-25.3-13.431-39.671-17.09
				C277.538,573.793,276.212,578.615,279.335,579.411L279.335,579.411z"/>
		</g>
	</g>
	<g>
		<g>
			<path fill="#F15A29" d="M242.841,502.262c5.605,9.381,14.653,17.468,25.84,18.784c12.244,1.439,18.772-10.014,20.729-20.381
				c0.595-3.151-4.224-4.496-4.821-1.33c-1.691,8.958-6.404,18.291-16.977,16.556c-8.819-1.447-16.068-8.813-20.454-16.152
				C245.507,496.975,241.183,499.487,242.841,502.262L242.841,502.262z"/>
		</g>
	</g>
	<g>
		<g>
			<path fill="#F15A29" d="M317.767,472.768c7.292-7.151,19.794-16.567,28.074-5.506c1.908,2.549,6.251,0.061,4.317-2.523
				c-10.538-14.079-25.825-5.412-35.926,4.494C311.927,471.492,315.465,475.026,317.767,472.768L317.767,472.768z"/>
		</g>
	</g>
	<g>
		<g>
			<path fill="#F15A29" d="M246.841,427.262c5.389,11.184,16.913,21.373,27.683,27.159c4.728,2.539,10.641,4.462,15.892,2.429
				c6.399-2.479,8.267-9.735,9.084-15.85c0.426-3.188-4.579-3.147-5,0c-0.641,4.794-2.269,11.158-8.011,11.691
				c-4.801,0.445-9.667-2.517-13.52-5.003c-8.412-5.429-17.403-13.802-21.811-22.95
				C249.759,421.834,245.449,424.371,246.841,427.262L246.841,427.262z"/>
		</g>
	</g>
	<g>
		<g>
			<path fill="#F15A29" d="M324.5,420c-0.998-9.422-3.08-19.222-0.652-28.585c1.645-6.341,7.622-11.167,14.287-10.036
				c6.328,1.073,11.467,6.746,14.706,11.883c1.715,2.719,6.042,0.213,4.317-2.523c-7.577-12.016-21.936-20.162-33.732-8.725
				c-9.443,9.156-5.128,26.642-3.926,37.986C319.836,423.172,324.839,423.205,324.5,420L324.5,420z"/>
		</g>
	</g>
</g>
<g id="titre">
	<circle fill="#FFFFFF" cx="704.773" cy="90.856" r="83.635"/>
	<text transform="matrix(1 0 0 1 655.2567 47.5001)"><tspan x="0" y="0" fill="#414042" font-family="'HoboStd'" font-size="18">Le fascinant</tspan><tspan x="-10.953" y="21.6" fill="#414042" font-family="'HoboStd'" font-size="18">cosystme de</tspan><tspan x="-3.659" y="62.4" font-family="'HoboStd'" font-size="34">PRISM</tspan><tspan x="-10.099" y="84" fill="#414042" font-family="'HoboStd'" font-size="18">Un projet de la</tspan><tspan x="31.04" y="105.6" fill="#414042" font-family="'HoboStd'" font-size="18">NSA</tspan></text>
</g>
</svg>
